<svg width="12" height="12" viewBox="0 0 12 12" fill="none" xmlns="http://www.w3.org/2000/svg">
<g opacity="0.8" clip-path="url(#clip0_2_337)">
<path d="M0.800391 8.00078L0.446837 7.64723L0.322817 7.77125L0.303449 7.94557L0.800391 8.00078ZM8.00039 0.800781L8.35394 0.447228C8.26018 0.35346 8.133 0.300781 8.00039 0.300781C7.86778 0.300781 7.74061 0.35346 7.64684 0.447228L8.00039 0.800781ZM11.2004 4.00078L11.5539 4.35433C11.7492 4.15907 11.7492 3.84249 11.5539 3.64723L11.2004 4.00078ZM4.00039 11.2008L4.05561 11.6977L4.22992 11.6784L4.35394 11.5543L4.00039 11.2008ZM0.400391 11.6008L-0.0965512 11.5456C-0.113325 11.6965 -0.0605665 11.8469 0.0468372 11.9543C0.154241 12.0617 0.304644 12.1145 0.455606 12.0977L0.400391 11.6008ZM1.15394 8.35434L8.35394 1.15433L7.64684 0.447228L0.446837 7.64723L1.15394 8.35434ZM7.64684 1.15433L10.8468 4.35433L11.5539 3.64723L8.35394 0.447228L7.64684 1.15433ZM10.8468 3.64723L3.64684 10.8472L4.35394 11.5543L11.5539 4.35433L10.8468 3.64723ZM3.94517 10.7038L0.345175 11.1038L0.455606 12.0977L4.05561 11.6977L3.94517 10.7038ZM0.897332 11.656L1.29733 8.056L0.303449 7.94557L-0.0965512 11.5456L0.897332 11.656ZM5.24684 3.55433L8.44684 6.75433L9.15394 6.04723L5.95394 2.84723L5.24684 3.55433ZM5.60039 12.1008H12.0004V11.1008H5.60039V12.1008Z" fill="#537791"/>
</g>
<defs>
<clipPath id="clip0_2_337">
<rect width="12" height="12" fill="white"/>
</clipPath>
</defs>
</svg>
