<svg width="12" height="12" viewBox="0 0 12 12" fill="none" xmlns="http://www.w3.org/2000/svg">
<g opacity="0.8" clip-path="url(#clip0_2_333)">
<path d="M3.7754 0.400024H2.00002C1.11637 0.400024 0.400024 1.11637 0.400024 2.00002V3.60002C0.400024 8.0183 3.98175 11.6 8.40003 11.6H10C10.8837 11.6 11.6 10.8837 11.6 10V8.89445C11.6 8.59143 11.4288 8.31442 11.1578 8.17891L9.22505 7.21254C8.78961 6.99482 8.26229 7.21324 8.10833 7.6751L7.87012 8.38974C7.71582 8.85265 7.24097 9.12821 6.76249 9.03252C4.84746 8.64951 3.35054 7.15259 2.96753 5.23756C2.87184 4.75908 3.1474 4.28423 3.61031 4.12993L4.49722 3.83429C4.89379 3.7021 5.12174 3.28687 5.02035 2.88132L4.55152 1.006C4.46248 0.649862 4.1425 0.400024 3.7754 0.400024Z" stroke="#537791"/>
</g>
<defs>
<clipPath id="clip0_2_333">
<rect width="12" height="12" fill="white"/>
</clipPath>
</defs>
</svg>
