<svg width="13" height="14" viewBox="0 0 13 14" fill="none" xmlns="http://www.w3.org/2000/svg">
<path d="M10.3346 6.13976C10.3346 7.43137 9.56045 8.81768 8.61393 9.91794C8.1481 10.4594 7.66003 10.9085 7.24517 11.2178C7.03728 11.3727 6.85585 11.4866 6.71143 11.5593C6.55125 11.64 6.48881 11.6432 6.5013 11.6432V12.6432C6.73046 12.6432 6.96594 12.5508 7.16122 12.4524C7.37227 12.3461 7.60387 12.1977 7.84285 12.0195C8.32174 11.6625 8.86283 11.162 9.37201 10.5701C10.3755 9.40363 11.3346 7.7882 11.3346 6.13976H10.3346ZM6.5013 11.6432C6.5138 11.6432 6.45135 11.64 6.29117 11.5593C6.14675 11.4866 5.96533 11.3727 5.75743 11.2178C5.34258 10.9085 4.8545 10.4594 4.38868 9.91794C3.44215 8.81768 2.66797 7.43137 2.66797 6.13976H1.66797C1.66797 7.7882 2.62712 9.40363 3.63059 10.5701C4.13977 11.162 4.68086 11.6625 5.15976 12.0195C5.39874 12.1977 5.63033 12.3461 5.84138 12.4524C6.03666 12.5508 6.27214 12.6432 6.5013 12.6432V11.6432ZM2.66797 6.13976C2.66797 4.05252 4.37926 2.35156 6.5013 2.35156V1.35156C3.83687 1.35156 1.66797 3.49039 1.66797 6.13976H2.66797ZM6.5013 2.35156C8.62334 2.35156 10.3346 4.05252 10.3346 6.13976H11.3346C11.3346 3.49039 9.16573 1.35156 6.5013 1.35156V2.35156Z" fill="white"/>
<circle r="1.625" transform="matrix(-1 0 0 1 6.5 5.91406)" stroke="white"/>
</svg>
