<svg width="8" height="10" viewBox="0 0 8 10" fill="none" xmlns="http://www.w3.org/2000/svg">
<path d="M1.16335 0.914734C0.947722 0.742229 0.912762 0.427583 1.08527 0.211952C1.25777 -0.00367921 1.57242 -0.0386399 1.78805 0.133865L1.16335 0.914734ZM1.78805 9.30352C1.57242 9.47603 1.25777 9.44107 1.08527 9.22544C0.912762 9.0098 0.947723 8.69516 1.16335 8.52265L1.78805 9.30352ZM6.71869 4.71869L7.03104 4.32826C7.14965 4.42314 7.21869 4.5668 7.21869 4.71869C7.21869 4.87059 7.14965 5.01424 7.03104 5.10913L6.71869 4.71869ZM1.16335 8.52265L6.40635 4.32826L7.03104 5.10913L1.78805 9.30352L1.16335 8.52265ZM6.40635 5.10913L1.16335 0.914734L1.78805 0.133865L7.03104 4.32826L6.40635 5.10913Z" fill="#262628"/>
</svg>
