<svg width="8" height="10" viewBox="0 0 8 10" fill="none" xmlns="http://www.w3.org/2000/svg">
<path d="M6.83665 9.08527C7.05228 9.25777 7.08724 9.57242 6.91473 9.78805C6.74223 10.0037 6.42758 10.0386 6.21195 9.86614L6.83665 9.08527ZM6.21195 0.696478C6.42758 0.523973 6.74223 0.558934 6.91473 0.774565C7.08724 0.990196 7.05228 1.30484 6.83665 1.47735L6.21195 0.696478ZM1.28131 5.28131L0.96896 5.67174C0.850352 5.57685 0.781307 5.4332 0.781307 5.28131C0.781307 5.12941 0.850352 4.98576 0.968959 4.89087L1.28131 5.28131ZM6.83665 1.47735L1.59365 5.67174L0.968959 4.89087L6.21195 0.696478L6.83665 1.47735ZM1.59365 4.89087L6.83665 9.08527L6.21195 9.86614L0.96896 5.67174L1.59365 4.89087Z" fill="#262628"/>
</svg>
