<svg width="21" height="20" viewBox="0 0 21 20" fill="none" xmlns="http://www.w3.org/2000/svg">
<g clip-path="url(#clip0_205_658)">
<path d="M11.5882 12.9412C11.5882 11.9178 12.4178 11.0882 13.4412 11.0882H18.1471C19.1704 11.0882 20 11.9178 20 12.9412V17.6471C20 18.6704 19.1704 19.5 18.1471 19.5H13.4412C12.4178 19.5 11.5882 18.6704 11.5882 17.6471V12.9412ZM11.5882 2.35294C11.5882 1.32959 12.4178 0.5 13.4412 0.5H18.1471C19.1704 0.5 20 1.32959 20 2.35294V7.05882C20 8.08218 19.1704 8.91177 18.1471 8.91177H13.4412C12.4178 8.91177 11.5882 8.08218 11.5882 7.05882V2.35294ZM1 2.35294C1 1.32959 1.82959 0.5 2.85294 0.5H7.55882C8.58218 0.5 9.41177 1.32959 9.41177 2.35294V7.05882C9.41177 8.08218 8.58218 8.91177 7.55882 8.91177H2.85294C1.82959 8.91177 1 8.08218 1 7.05882V2.35294ZM1 12.9412C1 11.9178 1.82959 11.0882 2.85294 11.0882H7.55882C8.58218 11.0882 9.41177 11.9178 9.41177 12.9412V17.6471C9.41177 18.6704 8.58218 19.5 7.55882 19.5H2.85294C1.82959 19.5 1 18.6704 1 17.6471V12.9412Z" stroke="#537791"/>
</g>
<defs>
<clipPath id="clip0_205_658">
<rect width="20" height="20" fill="white" transform="translate(0.5)"/>
</clipPath>
</defs>
</svg>
