<svg width="21" height="20" viewBox="0 0 21 20" fill="none" xmlns="http://www.w3.org/2000/svg">
<path d="M7.83334 15.3334H7.33334V15.8334H7.83334V15.3334ZM14.5 15.3334V15.8334H15V15.3334H14.5ZM8.33334 15.3334V14.6666H7.33334V15.3334H8.33334ZM14 14.6667V15.3334H15V14.6667H14ZM14.5 14.8334H7.83334V15.8334H14.5V14.8334ZM11.1667 11.8334C12.7315 11.8334 14 13.1019 14 14.6667H15C15 12.5497 13.2838 10.8334 11.1667 10.8334V11.8334ZM8.33334 14.6666C8.33334 13.1018 9.60184 11.8334 11.1667 11.8334V10.8334C9.04962 10.8334 7.33334 12.5495 7.33334 14.6666H8.33334ZM11.1667 4.16675C9.78596 4.16675 8.66668 5.28604 8.66668 6.66675H9.66668C9.66668 5.83832 10.3382 5.16675 11.1667 5.16675V4.16675ZM13.6667 6.66675C13.6667 5.28604 12.5474 4.16675 11.1667 4.16675V5.16675C11.9951 5.16675 12.6667 5.83832 12.6667 6.66675H13.6667ZM11.1667 9.16675C12.5474 9.16675 13.6667 8.04746 13.6667 6.66675H12.6667C12.6667 7.49517 11.9951 8.16675 11.1667 8.16675V9.16675ZM11.1667 8.16675C10.3382 8.16675 9.66668 7.49517 9.66668 6.66675H8.66668C8.66668 8.04746 9.78596 9.16675 11.1667 9.16675V8.16675ZM5.16668 1.16675H17.1667V0.166748H5.16668V1.16675ZM18 2.00008V18.0001H19V2.00008H18ZM17.1667 18.8334H5.16668V19.8334H17.1667V18.8334ZM4.33334 18.0001V2.00008H3.33334V18.0001H4.33334ZM5.16668 18.8334C4.70644 18.8334 4.33334 18.4603 4.33334 18.0001H3.33334C3.33334 19.0126 4.15415 19.8334 5.16668 19.8334V18.8334ZM18 18.0001C18 18.4603 17.6269 18.8334 17.1667 18.8334V19.8334C18.1792 19.8334 19 19.0126 19 18.0001H18ZM17.1667 1.16675C17.6269 1.16675 18 1.53984 18 2.00008H19C19 0.987559 18.1792 0.166748 17.1667 0.166748V1.16675ZM5.16668 0.166748C4.15415 0.166748 3.33334 0.98756 3.33334 2.00008H4.33334C4.33334 1.53984 4.70644 1.16675 5.16668 1.16675V0.166748ZM5.83334 5.50008H1.83334V6.50008H5.83334V5.50008ZM5.83334 13.5001H1.83334V14.5001H5.83334V13.5001Z" fill="#537791"/>
</svg>
