<svg width="21" height="20" viewBox="0 0 21 20" fill="none" xmlns="http://www.w3.org/2000/svg">
<g clip-path="url(#clip0_214_696)">
<path d="M3.79032 2.45814L4.4247 2.71874L4.92495 8.16258L2.06521 6.96062C1.25872 6.62165 0.857485 5.69268 1.16413 4.87436L1.7339 3.35386C2.0454 2.52256 2.96844 2.12051 3.79032 2.45814ZM5.75227 8.50629L5.2512 3.05346L8.08656 4.19535L8.58764 9.64818L5.75227 8.50629ZM9.41396 9.98097L8.91288 4.52814L11.8781 5.72235L12.3792 11.1752L9.41396 9.98097ZM13.2055 11.508L12.7045 6.05513L15.5416 7.19773L16.0426 12.6506L13.2055 11.508ZM16.8681 12.974L16.3676 7.52779L18.8942 8.53415C19.7175 8.86209 20.134 9.80251 19.8232 10.6319L19.2388 12.1915C18.936 12.9993 18.0527 13.4059 17.2422 13.1104L16.8681 12.974Z" stroke="#537791" stroke-width="0.8" stroke-linejoin="round"/>
<path d="M3.37289 17.0222H5.70149V10.3308L3.37289 9.45581V17.0222Z" stroke="#537791" stroke-width="0.8" stroke-miterlimit="10"/>
<path d="M13.5114 17.1442H15.9939V14.4438L13.5235 13.5413L13.5114 17.1442Z" stroke="#537791" stroke-width="0.8" stroke-miterlimit="10"/>
</g>
<defs>
<clipPath id="clip0_214_696">
<rect width="20" height="20" fill="white" transform="translate(0.5)"/>
</clipPath>
</defs>
</svg>
