<svg width="20" height="20" viewBox="0 0 20 20" fill="none" xmlns="http://www.w3.org/2000/svg">
<path d="M9.99984 0.666992L10.3252 0.287364C10.138 0.126868 9.86169 0.126868 9.67444 0.287364L9.99984 0.666992ZM0.666504 8.66699L0.341108 8.28736L0.166504 8.43702V8.66699H0.666504ZM7.33317 19.3337V19.8337C7.60931 19.8337 7.83317 19.6098 7.83317 19.3337H7.33317ZM12.6665 19.3337H12.1665C12.1665 19.6098 12.3904 19.8337 12.6665 19.8337V19.3337ZM19.3332 8.66699H19.8332V8.43702L19.6586 8.28736L19.3332 8.66699ZM1.99984 19.8337H7.33317V18.8337H1.99984V19.8337ZM19.6586 8.28736L10.3252 0.287364L9.67444 1.04662L19.0078 9.04662L19.6586 8.28736ZM9.67444 0.287364L0.341108 8.28736L0.9919 9.04662L10.3252 1.04662L9.67444 0.287364ZM7.83317 19.3337V15.3337H6.83317V19.3337H7.83317ZM12.1665 15.3337V19.3337H13.1665V15.3337H12.1665ZM12.6665 19.8337H17.9998V18.8337H12.6665V19.8337ZM19.8332 18.0003V8.66699H18.8332V18.0003H19.8332ZM0.166504 8.66699V18.0003H1.1665V8.66699H0.166504ZM9.99984 13.167C11.1965 13.167 12.1665 14.137 12.1665 15.3337H13.1665C13.1665 13.5848 11.7487 12.167 9.99984 12.167V13.167ZM9.99984 12.167C8.25094 12.167 6.83317 13.5848 6.83317 15.3337H7.83317C7.83317 14.137 8.80322 13.167 9.99984 13.167V12.167ZM17.9998 19.8337C19.0124 19.8337 19.8332 19.0128 19.8332 18.0003H18.8332C18.8332 18.4606 18.4601 18.8337 17.9998 18.8337V19.8337ZM1.99984 18.8337C1.5396 18.8337 1.1665 18.4606 1.1665 18.0003H0.166504C0.166504 19.0128 0.987315 19.8337 1.99984 19.8337V18.8337Z" fill="#537791"/>
</svg>
