<svg width="719" height="216" viewBox="0 0 719 216" fill="none" xmlns="http://www.w3.org/2000/svg">
<path d="M651.269 24.4239L649 36.3164L715.786 48.9808L718.056 37.0883L651.269 24.4239Z" fill="#BCC0CF"/>
<path d="M705.707 101.23L707.977 89.3379L641.19 76.6735L638.921 88.566L705.707 101.23Z" fill="#BCC0CF"/>
<path d="M684.304 5.5128L666.305 2.09961L644.792 114.844L662.791 118.258L684.304 5.5128Z" fill="#ECF2F9"/>
<path d="M609.647 49.2763L608.197 50.9189L606.731 52.5615C600.77 47.8858 593.912 44.4759 586.58 42.5418C570.35 38.1725 554.499 41.5891 539.439 52.7093C526.521 62.2362 515.185 76.0831 502.053 92.131C478.198 121.244 448.696 157.267 394.534 184.789C391.048 186.561 387.697 188.574 384.346 190.591C376.538 195.288 359.937 203.932 335.487 209.788C318.704 213.752 301.509 215.726 284.26 215.669C257.387 215.669 225.108 211.135 188.595 197.6C123.387 173.616 60.3026 144.243 0 109.789L0 104.697C60.7687 139.575 124.381 169.279 190.161 193.494C253.185 216.868 303.308 212.975 334.235 205.6C367.766 197.617 383.519 185.296 386.846 183.77L387.192 183.573C443.972 156.043 474.289 119.086 498.642 89.3386C511.972 73.0607 523.473 59.0168 536.836 49.1613C557.086 34.1975 575.804 35.0188 587.914 38.3368C595.836 40.455 603.235 44.179 609.647 49.2763Z" fill="#BCC0CF"/>
<path d="M616.371 105.222L651.962 111.973L671.915 7.4072L636.325 0.656235C626.707 -1.16174 616.759 0.90206 608.666 6.39395C600.574 11.8858 595.001 20.3563 593.172 29.9433L587.009 62.1869C585.181 71.775 587.246 81.6947 592.752 89.7649C598.258 97.8351 606.754 103.395 616.371 105.222Z" fill="#ECF2F9"/>
<path d="M583.955 58.5791L593.344 60.3594L598.486 33.4116L589.097 31.6314L583.955 58.5791Z" fill="#ECF2F9"/>
</svg>
