<svg width="650" height="191" viewBox="0 0 650 191" fill="none" xmlns="http://www.w3.org/2000/svg">
<path d="M649.999 133.547V139.622C628.726 155.244 603.72 172.194 576.546 182.033C562.574 187.328 547.779 190.135 532.835 190.327C511.472 190.327 491.638 183.743 472.933 170.521C427.783 138.64 355.296 158.918 354.549 159.136H354.294C347.076 160.377 339.763 160.986 332.439 160.955C272.81 160.955 210.667 122.435 171.819 98.3556C158.196 89.9169 147.451 83.2605 140.366 80.3506C109.877 67.8926 78.624 72.7485 78.3144 72.8576L77.5312 68.0199C78.8608 67.8017 110.424 62.8185 142.315 75.913C149.782 78.9684 160.691 85.7339 174.497 94.2999C217.516 120.944 289.475 165.556 353.438 154.317C367.561 150.651 382.027 148.463 396.603 147.788C419.15 146.696 451.242 149.042 475.847 166.447C538.39 210.714 603.811 167.702 649.999 133.547Z" fill="#BCC0CF"/>
<path d="M61.3775 7.4748L22.0558 0L0 115.778L39.3399 123.252C49.9739 125.271 60.9752 122.988 69.9239 116.907C78.8727 110.826 85.0358 101.444 87.0576 90.8252L93.851 55.1244C94.8543 49.8663 94.81 44.4623 93.7207 39.2213C92.6314 33.9803 90.5185 29.005 87.5027 24.5798C84.4869 20.1546 80.6273 16.3663 76.1446 13.4313C71.6619 10.4963 66.6439 8.47227 61.3775 7.4748V7.4748Z" fill="#ECF2F9"/>
<path d="M82.8275 86.7458L93.1797 88.75L98.9586 58.9854L88.6064 56.9812L82.8275 86.7458Z" fill="#ECF2F9"/>
</svg>
