<svg width="11" height="14" viewBox="0 0 11 14" fill="none" xmlns="http://www.w3.org/2000/svg">
<g clip-path="url(#clip0_793_3747)">
<path d="M10.9447 7.48271C10.8184 6.59604 10.6525 5.47604 9.93396 4.54271C9.69706 4.2316 9.45226 4.34048 9.42857 4.72937C9.38119 5.4916 9.3575 5.80271 8.58363 6.46382C8.53625 6.51048 8.45729 6.50271 8.40991 6.45604C8.38622 6.42493 8.37042 6.38604 8.37832 6.34715C8.55204 5.62382 8.55204 4.87715 8.37042 4.15382C8.00718 2.80048 6.80689 1.18271 4.86432 0.0860393C4.51687 -0.108405 4.29576 0.0549281 4.39842 0.443817C4.4537 0.638261 4.48528 0.840484 4.49318 1.04271C4.63532 3.37604 1.61091 3.90493 0.58435 5.78715C0.150036 6.6116 0 7.53715 0 8.46271C0 11.4494 2.42426 14.0005 5.49605 14.0005C7.42283 14.0005 10.2814 12.6938 10.7947 10.3449C11.1421 8.71937 10.9447 7.48271 10.9447 7.48271ZM5.3776 13.1838C4.49318 13.1838 3.15075 12.6083 2.85068 11.5427C2.64537 10.8038 2.74013 10.4849 2.78751 10.1583C2.85068 9.68382 3.0402 9.22493 3.32448 8.83604C3.44293 8.68048 3.54558 8.71937 3.56138 8.91382C3.56927 9.09271 3.79038 9.48937 3.79038 9.29493C3.77459 9.06159 3.80617 8.83604 3.86935 8.61048C4.04307 7.98048 4.76956 7.28048 5.65398 6.77493C5.81981 6.68159 5.92247 6.75937 5.87509 6.93826C5.8514 7.03159 5.83561 7.12493 5.82771 7.21826C5.76454 8.28382 7.15434 8.52493 7.62814 9.39604C7.81766 9.77715 7.91242 10.2049 7.90452 10.6327C7.90452 12.0094 6.7832 13.1838 5.3776 13.1838Z" fill="#FF6D1A"/>
</g>
<defs>
<clipPath id="clip0_793_3747">
<rect width="11" height="14" fill="white"/>
</clipPath>
</defs>
</svg>
