<svg width="24" height="24" viewBox="0 0 24 24" fill="none" xmlns="http://www.w3.org/2000/svg">
<path d="M8.21126 4.36432C6.00956 4.63133 2.26668 7.98498 4.90871 19.2635L4.18375 22.9482L7.56685 22.1472C11.0277 23.3436 12.9664 23.2234 16.4273 22.1472L19.5688 22.9482L18.8438 19.2635C20.1863 14.9913 21.4697 6.03047 15.8635 4.36432M8.21126 4.36432C8.21126 4.36432 9.4195 5.64597 12.0374 5.64597M8.21126 4.36432C8.26495 3.7502 7.95349 2.31369 6.27805 1.48062L6.46315 1.41159C7.17528 1.14602 7.959 1.14444 8.6722 1.40712V1.40712C9.36364 1.66179 10.1221 1.6683 10.8178 1.42555L10.9534 1.37822C11.6553 1.13331 12.4194 1.13331 13.1213 1.37822L13.3471 1.45701C13.9811 1.67824 14.6751 1.65312 15.2915 1.38662V1.38662C15.8691 1.13689 16.5162 1.09861 17.1192 1.27851L17.7967 1.48062C16.379 1.86511 15.9172 3.56329 15.8635 4.36432M15.8635 4.36432C15.8635 4.36432 14.6552 5.64597 12.0374 5.64597M12.0374 5.64597L11.1916 3.16278M12.0374 5.64597L12.8831 3.16278M6.6808 11.093C6.2512 12.6683 5.73031 16.3477 7.08355 18.4624M17.2328 11.093C17.6087 12.6149 18.0544 16.2196 16.8301 18.4624M8.61399 7.88885C8.2918 6.15863 9.23154 4.97845 9.74169 4.60463C9.66114 5.43236 9.72558 7.24803 10.6277 7.88885" stroke="#FF6D1A" stroke-width="0.5" stroke-linecap="round" stroke-linejoin="round"/>
</svg>
