<svg width="21" height="24" viewBox="0 0 21 24" fill="none" xmlns="http://www.w3.org/2000/svg">
<path d="M1 16.1301H0.75V16.1788L0.768294 16.224L1 16.1301ZM11.8262 11.3048C11.8262 11.4429 11.9382 11.5548 12.0762 11.5548C12.2143 11.5548 12.3262 11.4429 12.3262 11.3048H11.8262ZM20 20.0558L20.2217 20.1713L20.25 20.117V20.0558H20ZM20 13.2677H20.25V13.2527L20.2482 13.2378L20 13.2677ZM14.7601 17.3522C14.622 17.3522 14.5101 17.4642 14.5101 17.6022C14.5101 17.7403 14.622 17.8522 14.7601 17.8522V17.3522ZM9.99141 12.4528L9.89938 12.6852L9.99141 12.4528ZM10.9193 12.9204L10.7871 13.1327L10.9193 12.9204ZM11.7657 21.4768L11.5964 21.2928L11.7657 21.4768ZM6.96413 15.3473V15.0973H6.71413V15.3473H6.96413ZM6.71413 19.4015C6.71413 19.5396 6.82605 19.6515 6.96413 19.6515C7.1022 19.6515 7.21413 19.5396 7.21413 19.4015H6.71413ZM6.19731 17.2704C6.05924 17.2704 5.94731 17.3824 5.94731 17.5204C5.94731 17.6585 6.05924 17.7704 6.19731 17.7704V17.2704ZM6.19731 18.0883C6.05924 18.0883 5.94731 18.2002 5.94731 18.3383C5.94731 18.4764 6.05924 18.5883 6.19731 18.5883V18.0883ZM8.92377 18.5883C9.06184 18.5883 9.17377 18.4764 9.17377 18.3383C9.17377 18.2002 9.06184 18.0883 8.92377 18.0883V18.5883ZM1 3.12639C0.759289 3.19391 0.759363 3.19417 0.759439 3.19444C0.759467 3.19454 0.759546 3.19482 0.759604 3.19502C0.759719 3.19542 0.759844 3.19586 0.75998 3.19633C0.760252 3.19727 0.760566 3.19834 0.760924 3.19954C0.76164 3.20193 0.762532 3.20484 0.763615 3.20825C0.765782 3.21506 0.768713 3.22387 0.772529 3.23453C0.780161 3.25585 0.791332 3.28459 0.806999 3.31968C0.838344 3.38989 0.887648 3.4854 0.962501 3.59748C1.11258 3.82222 1.36355 4.11086 1.77349 4.39505C2.59377 4.96371 4.03263 5.50279 6.53812 5.50279V5.00279C4.1019 5.00279 2.7717 4.47867 2.05835 3.98413C1.70148 3.73673 1.49448 3.49377 1.37831 3.3198C1.32003 3.23254 1.28413 3.16192 1.26356 3.11584C1.25327 3.09279 1.2468 3.07585 1.24328 3.06602C1.24152 3.06111 1.2405 3.05797 1.24011 3.05674C1.23991 3.05612 1.23987 3.05598 1.23998 3.05633C1.24003 3.05651 1.24012 3.05681 1.24024 3.05723C1.2403 3.05744 1.24037 3.05769 1.24045 3.05796C1.24049 3.0581 1.24056 3.05833 1.24058 3.0584C1.24064 3.05863 1.24071 3.05888 1 3.12639ZM6.53812 5.50279C9.0436 5.50279 10.4825 4.96371 11.3027 4.39505C11.7127 4.11086 11.9637 3.82222 12.1137 3.59748C12.1886 3.4854 12.2379 3.38989 12.2692 3.31968C12.2849 3.28459 12.2961 3.25585 12.3037 3.23453C12.3075 3.22387 12.3105 3.21506 12.3126 3.20825C12.3137 3.20484 12.3146 3.20193 12.3153 3.19954C12.3157 3.19834 12.316 3.19727 12.3163 3.19633C12.3164 3.19586 12.3165 3.19542 12.3166 3.19502C12.3167 3.19482 12.3168 3.19454 12.3168 3.19444C12.3169 3.19417 12.3169 3.19391 12.0762 3.12639C11.8355 3.05888 11.8356 3.05863 11.8357 3.0584C11.8357 3.05833 11.8357 3.0581 11.8358 3.05796C11.8359 3.05769 11.8359 3.05744 11.836 3.05723C11.8361 3.05681 11.8362 3.05651 11.8363 3.05633C11.8364 3.05598 11.8363 3.05612 11.8361 3.05674C11.8357 3.05797 11.8347 3.06111 11.833 3.06602C11.8294 3.07585 11.823 3.09279 11.8127 3.11584C11.7921 3.16192 11.7562 3.23254 11.6979 3.3198C11.5818 3.49377 11.3748 3.73673 11.0179 3.98413C10.3045 4.47867 8.97434 5.00279 6.53812 5.00279V5.50279ZM1 3.12639C1.25 3.12639 1.25 3.1267 1.25 3.12701C1.25 3.1271 1.25 3.12739 1.25 3.12757C1.25 3.12794 1.24999 3.12827 1.24999 3.12857C1.24998 3.12917 1.24998 3.12966 1.24997 3.13002C1.24995 3.13075 1.24994 3.131 1.24995 3.13079C1.24997 3.13037 1.25007 3.12811 1.25042 3.12414C1.25111 3.11619 1.25276 3.10141 1.2566 3.08075C1.26428 3.03949 1.28071 2.97465 1.31586 2.89369C1.38543 2.73343 1.5319 2.50155 1.84453 2.26148C2.47411 1.77802 3.79404 1.25 6.53812 1.25V0.75C3.74408 0.75 2.29495 1.28518 1.54 1.86491C1.16036 2.15644 0.960705 2.45617 0.857206 2.6946C0.805818 2.81298 0.778991 2.91427 0.765034 2.9893C0.75806 3.02679 0.754303 3.05769 0.752289 3.08089C0.751282 3.09249 0.75071 3.10218 0.750389 3.1098C0.750229 3.11362 0.750132 3.11692 0.750075 3.11969C0.750046 3.12107 0.750027 3.12232 0.750016 3.12344C0.75001 3.124 0.750006 3.12453 0.750004 3.12502C0.750002 3.12527 0.750001 3.12561 0.750001 3.12573C0.75 3.12607 0.75 3.12639 1 3.12639ZM6.53812 1.25C9.28219 1.25 10.6021 1.77802 11.2317 2.26148C11.5443 2.50155 11.6908 2.73343 11.7604 2.89369C11.7955 2.97465 11.812 3.03949 11.8196 3.08075C11.8235 3.10141 11.8251 3.11619 11.8258 3.12414C11.8262 3.12811 11.8263 3.13037 11.8263 3.13079C11.8263 3.131 11.8263 3.13075 11.8263 3.13002C11.8263 3.12966 11.8262 3.12917 11.8262 3.12857C11.8262 3.12827 11.8262 3.12794 11.8262 3.12757C11.8262 3.12739 11.8262 3.1271 11.8262 3.12701C11.8262 3.1267 11.8262 3.12639 12.0762 3.12639C12.3262 3.12639 12.3262 3.12607 12.3262 3.12573C12.3262 3.12561 12.3262 3.12527 12.3262 3.12502C12.3262 3.12453 12.3262 3.124 12.3262 3.12344C12.3262 3.12232 12.3262 3.12107 12.3262 3.11969C12.3261 3.11692 12.326 3.11362 12.3258 3.1098C12.3255 3.10218 12.325 3.09249 12.3239 3.08089C12.3219 3.05769 12.3182 3.02679 12.3112 2.9893C12.2972 2.91427 12.2704 2.81298 12.219 2.6946C12.1155 2.45617 11.9159 2.15644 11.5362 1.86491C10.7813 1.28518 9.33216 0.75 6.53812 0.75V1.25ZM1.25 5.74349V3.12639H0.75V5.74349H1.25ZM11.8262 3.12639V5.74349H12.3262V3.12639H11.8262ZM1 5.74349C0.817625 5.91449 0.81774 5.91461 0.817861 5.91474C0.817909 5.91479 0.818036 5.91493 0.818132 5.91503C0.818325 5.91523 0.818541 5.91546 0.818782 5.91572C0.819263 5.91622 0.81984 5.91683 0.820513 5.91753C0.821859 5.91894 0.82359 5.92073 0.825709 5.9229C0.829947 5.92724 0.835739 5.93308 0.843114 5.94031C0.857864 5.95479 0.878946 5.97485 0.906592 5.9997C0.961886 6.04941 1.04343 6.11824 1.15308 6.19973C1.37244 6.36275 1.70401 6.57618 2.16241 6.78824C3.08021 7.21281 4.50067 7.62918 6.53812 7.62918V7.12918C4.57108 7.12918 3.22248 6.72771 2.37234 6.33444C1.94678 6.13758 1.64465 5.94209 1.45132 5.79841C1.35462 5.72655 1.28507 5.6676 1.24085 5.62785C1.21874 5.60798 1.20296 5.5929 1.19329 5.58341C1.18845 5.57867 1.18514 5.57532 1.18333 5.57347C1.18243 5.57254 1.1819 5.57199 1.18174 5.57183C1.18166 5.57174 1.18167 5.57176 1.18178 5.57187C1.18183 5.57192 1.18191 5.572 1.18201 5.57211C1.18206 5.57216 1.18215 5.57226 1.18217 5.57229C1.18227 5.57239 1.18237 5.5725 1 5.74349ZM6.53812 7.62918C8.57557 7.62918 9.99602 7.21281 10.9138 6.78824C11.3722 6.57618 11.7038 6.36275 11.9232 6.19973C12.0328 6.11824 12.1143 6.04941 12.1696 5.9997C12.1973 5.97485 12.2184 5.95479 12.2331 5.94031C12.2405 5.93308 12.2463 5.92724 12.2505 5.9229C12.2526 5.92073 12.2544 5.91894 12.2557 5.91753C12.2564 5.91683 12.257 5.91622 12.2575 5.91572C12.2577 5.91546 12.2579 5.91523 12.2581 5.91503C12.2582 5.91493 12.2583 5.91479 12.2584 5.91474C12.2585 5.91461 12.2586 5.91449 12.0762 5.74349C11.8939 5.5725 11.894 5.57239 11.8941 5.57229C11.8941 5.57226 11.8942 5.57216 11.8942 5.57211C11.8943 5.572 11.8944 5.57192 11.8945 5.57187C11.8946 5.57176 11.8946 5.57174 11.8945 5.57183C11.8943 5.57199 11.8938 5.57254 11.8929 5.57347C11.8911 5.57532 11.8878 5.57867 11.8829 5.58341C11.8733 5.5929 11.8575 5.60798 11.8354 5.62785C11.7912 5.6676 11.7216 5.72655 11.6249 5.79841C11.4316 5.94209 11.1295 6.13758 10.7039 6.33444C9.85375 6.72771 8.50515 7.12918 6.53812 7.12918V7.62918ZM1.25 8.03346V5.74349H0.75V8.03346H1.25ZM11.8262 5.74349V8.03346H12.3262V5.74349H11.8262ZM1 8.03346C0.811217 8.19735 0.811354 8.19751 0.811496 8.19767C0.81155 8.19773 0.811697 8.1979 0.811805 8.19803C0.812021 8.19827 0.812258 8.19854 0.812514 8.19883C0.813028 8.19942 0.813622 8.20009 0.814297 8.20085C0.815649 8.20236 0.817327 8.20423 0.819339 8.20643C0.823363 8.21083 0.828719 8.21657 0.835462 8.22356C0.848947 8.23753 0.867969 8.25651 0.892948 8.27975C0.942915 8.32624 1.01665 8.38973 1.11748 8.46439C1.31926 8.61381 1.6288 8.80741 2.07239 8.99902C2.95999 9.38242 4.37897 9.75558 6.53812 9.75558V9.25558C4.43717 9.25558 3.08709 8.89267 2.27066 8.54001C1.86223 8.36359 1.586 8.18917 1.41503 8.06256C1.32948 7.99922 1.27009 7.9477 1.23352 7.91368C1.21524 7.89666 1.20264 7.88401 1.19532 7.87643C1.19167 7.87263 1.18933 7.87011 1.18825 7.86893C1.18772 7.86835 1.1875 7.8681 1.18759 7.8682C1.18763 7.86825 1.18776 7.86839 1.18796 7.86862C1.18806 7.86873 1.18817 7.86887 1.18831 7.86902C1.18838 7.8691 1.1885 7.86924 1.18853 7.86928C1.18866 7.86942 1.18878 7.86956 1 8.03346ZM6.53812 9.75558C8.69726 9.75558 10.1162 9.38242 11.0038 8.99902C11.4474 8.80741 11.757 8.61381 11.9588 8.46439C12.0596 8.38973 12.1333 8.32624 12.1833 8.27975C12.2083 8.25651 12.2273 8.23753 12.2408 8.22356C12.2475 8.21657 12.2529 8.21083 12.2569 8.20643C12.2589 8.20423 12.2606 8.20236 12.2619 8.20085C12.2626 8.20009 12.2632 8.19942 12.2637 8.19883C12.264 8.19854 12.2642 8.19827 12.2644 8.19803C12.2645 8.1979 12.2647 8.19773 12.2647 8.19767C12.2649 8.19751 12.265 8.19735 12.0762 8.03346C11.8875 7.86956 11.8876 7.86942 11.8877 7.86928C11.8877 7.86924 11.8879 7.8691 11.8879 7.86902C11.8881 7.86887 11.8882 7.86873 11.8883 7.86862C11.8885 7.86839 11.8886 7.86825 11.8886 7.8682C11.8887 7.8681 11.8885 7.86835 11.888 7.86893C11.8869 7.87011 11.8846 7.87263 11.8809 7.87643C11.8736 7.88401 11.861 7.89666 11.8427 7.91368C11.8061 7.9477 11.7468 7.99922 11.6612 8.06256C11.4902 8.18917 11.214 8.36359 10.8056 8.54001C9.98914 8.89267 8.63906 9.25558 6.53812 9.25558V9.75558ZM1.25 10.0781V8.03346H0.75V10.0781H1.25ZM11.8262 8.03346V10.0781H12.3262V8.03346H11.8262ZM11.8262 10.0781V11.3048H12.3262V10.0781H11.8262ZM1 10.0781C0.807954 10.2381 0.808077 10.2383 0.808205 10.2384C0.808255 10.2385 0.808389 10.2386 0.808489 10.2388C0.808688 10.239 0.808909 10.2393 0.809152 10.2396C0.809637 10.2401 0.810208 10.2408 0.810865 10.2416C0.812181 10.2431 0.813842 10.245 0.815856 10.2473C0.819884 10.2519 0.82532 10.2581 0.832209 10.2656C0.845988 10.2806 0.865579 10.3011 0.891339 10.3265C0.942866 10.3772 1.01905 10.447 1.12273 10.5294C1.33021 10.6942 1.64726 10.9089 2.09639 11.1218C2.99556 11.548 4.41714 11.9638 6.53812 11.9638V11.4638C4.48421 11.4638 3.13673 11.0616 2.31056 10.67C1.89702 10.474 1.61233 10.2798 1.43374 10.1379C1.34439 10.0669 1.28145 10.0089 1.24212 9.9702C1.22245 9.95083 1.20868 9.93628 1.20045 9.92732C1.19633 9.92284 1.19361 9.91976 1.19222 9.91818C1.19153 9.91738 1.19117 9.91697 1.19114 9.91693C1.19113 9.91692 1.1912 9.917 1.19135 9.91718C1.19142 9.91727 1.19152 9.91738 1.19164 9.91752C1.19169 9.91759 1.1918 9.91771 1.19183 9.91775C1.19193 9.91788 1.19205 9.91801 1 10.0781ZM6.53812 11.9638C8.6591 11.9638 10.0807 11.548 10.9798 11.1218C11.429 10.9089 11.746 10.6942 11.9535 10.5294C12.0572 10.447 12.1334 10.3772 12.1849 10.3265C12.2107 10.3011 12.2302 10.2806 12.244 10.2656C12.2509 10.2581 12.2563 10.2519 12.2604 10.2473C12.2624 10.245 12.2641 10.2431 12.2654 10.2416C12.266 10.2408 12.2666 10.2401 12.2671 10.2396C12.2673 10.2393 12.2675 10.239 12.2677 10.2388C12.2678 10.2386 12.268 10.2385 12.268 10.2384C12.2682 10.2383 12.2683 10.2381 12.0762 10.0781C11.8842 9.91801 11.8843 9.91788 11.8844 9.91775C11.8844 9.91771 11.8845 9.91759 11.8846 9.91752C11.8847 9.91738 11.8848 9.91727 11.8849 9.91718C11.885 9.917 11.8851 9.91692 11.8851 9.91693C11.8851 9.91697 11.8847 9.91738 11.884 9.91818C11.8826 9.91976 11.8799 9.92284 11.8758 9.92732C11.8676 9.93628 11.8538 9.95083 11.8341 9.9702C11.7948 10.0089 11.7318 10.0669 11.6425 10.1379C11.4639 10.2798 11.1792 10.474 10.7657 10.67C9.9395 11.0616 8.59202 11.4638 6.53812 11.4638V11.9638ZM1.25 12.2045V10.0781H0.75V12.2045H1.25ZM1.25 16.1301V14.4944H0.75V16.1301H1.25ZM1.25 14.4944V12.2045H0.75V14.4944H1.25ZM20 13.2677C20.2482 13.2378 20.2482 13.2375 20.2481 13.2372C20.2481 13.2371 20.2481 13.2368 20.2481 13.2366C20.248 13.2362 20.2479 13.2357 20.2479 13.2352C20.2478 13.2342 20.2476 13.233 20.2474 13.2317C20.2471 13.2292 20.2466 13.2261 20.2461 13.2225C20.2449 13.2154 20.2433 13.2062 20.2411 13.1951C20.2367 13.173 20.2299 13.1433 20.2195 13.1072C20.1987 13.0349 20.1636 12.9367 20.1048 12.8217C19.9868 12.5906 19.7757 12.2958 19.4022 12.0067C18.656 11.4293 17.2843 10.8913 14.7601 10.8913V11.3913C17.2202 11.3913 18.4685 11.9164 19.0962 12.4022C19.4096 12.6447 19.5739 12.8815 19.6596 13.0491C19.7026 13.1334 19.7264 13.2014 19.739 13.2454C19.7453 13.2674 19.7489 13.2834 19.7507 13.2924C19.7516 13.2969 19.752 13.2997 19.7522 13.3006C19.7522 13.301 19.7522 13.301 19.7522 13.3005C19.7521 13.3002 19.7521 13.2999 19.752 13.2994C19.752 13.2991 19.752 13.2988 19.7519 13.2985C19.7519 13.2984 19.7519 13.2981 19.7519 13.298C19.7518 13.2978 19.7518 13.2975 20 13.2677ZM20 20.0558C19.7783 19.9403 19.7784 19.9401 19.7785 19.9399C19.7785 19.9398 19.7786 19.9396 19.7787 19.9395C19.7788 19.9393 19.7789 19.9391 19.779 19.939C19.7791 19.9386 19.7793 19.9384 19.7793 19.9383C19.7794 19.9381 19.7793 19.9383 19.779 19.9389C19.7783 19.9401 19.7767 19.9429 19.7741 19.9473C19.7689 19.956 19.7596 19.9708 19.7457 19.9909C19.718 20.031 19.6717 20.0922 19.6023 20.1677C19.4637 20.3184 19.2316 20.5274 18.8677 20.7394C18.1409 21.1628 16.8762 21.605 14.7601 21.605V22.105C16.9466 22.105 18.3019 21.6476 19.1194 21.1714C19.5277 20.9336 19.7988 20.6927 19.9704 20.5061C20.056 20.4129 20.1166 20.3336 20.1569 20.2753C20.1771 20.2462 20.1921 20.2223 20.2027 20.2047C20.208 20.1959 20.2122 20.1886 20.2154 20.183C20.2169 20.1802 20.2182 20.1778 20.2193 20.1758C20.2198 20.1749 20.2203 20.174 20.2207 20.1732C20.2209 20.1728 20.2211 20.1725 20.2213 20.1722C20.2213 20.172 20.2215 20.1718 20.2215 20.1717C20.2216 20.1715 20.2217 20.1713 20 20.0558ZM20.25 20.0558V18.1747H19.75V20.0558H20.25ZM20 18.1747C19.7912 18.0373 19.7913 18.0371 19.7914 18.0369C19.7914 18.0369 19.7915 18.0367 19.7916 18.0366C19.7918 18.0364 19.7919 18.0362 19.792 18.036C19.7922 18.0357 19.7924 18.0355 19.7925 18.0353C19.7927 18.0351 19.7926 18.0351 19.7923 18.0356C19.7917 18.0364 19.7901 18.0387 19.7873 18.0424C19.7819 18.0496 19.7721 18.0622 19.7575 18.0794C19.7283 18.1137 19.6795 18.1665 19.607 18.2318C19.4623 18.3622 19.2216 18.5436 18.8505 18.7277C18.1086 19.0959 16.8381 19.4786 14.7601 19.4786V19.9786C16.8995 19.9786 18.249 19.5844 19.0727 19.1756C19.4844 18.9713 19.7629 18.7642 19.9417 18.6033C20.0309 18.5229 20.095 18.4543 20.1381 18.4036C20.1597 18.3783 20.176 18.3575 20.1876 18.342C20.1934 18.3342 20.1981 18.3278 20.2016 18.3228C20.2033 18.3203 20.2048 18.3181 20.206 18.3164C20.2066 18.3155 20.2072 18.3147 20.2076 18.314C20.2079 18.3136 20.2081 18.3133 20.2083 18.313C20.2084 18.3128 20.2085 18.3126 20.2086 18.3125C20.2087 18.3123 20.2088 18.3121 20 18.1747ZM20.25 18.1747V16.1301H19.75V18.1747H20.25ZM20 16.1301C19.8269 15.9498 19.827 15.9497 19.8271 15.9496C19.8271 15.9495 19.8272 15.9495 19.8272 15.9494C19.8273 15.9493 19.8274 15.9493 19.8275 15.9492C19.8276 15.9491 19.8276 15.9491 19.8275 15.9492C19.8273 15.9494 19.8268 15.9499 19.8258 15.9507C19.824 15.9524 19.8207 15.9554 19.8158 15.9597C19.8062 15.9683 19.7904 15.982 19.7685 15.9999C19.7247 16.0358 19.656 16.089 19.5613 16.1538C19.3719 16.2834 19.0782 16.4596 18.6702 16.6369C17.8551 16.9912 16.5791 17.3522 14.7601 17.3522V17.8522C16.6474 17.8522 17.9913 17.4772 18.8696 17.0954C19.3083 16.9048 19.6296 16.7129 19.8436 16.5665C19.9506 16.4932 20.0307 16.4314 20.0852 16.3868C20.1125 16.3645 20.1333 16.3465 20.1479 16.3335C20.1552 16.3271 20.1609 16.3218 20.1651 16.318C20.1672 16.316 20.1689 16.3144 20.1703 16.3132C20.1709 16.3125 20.1715 16.312 20.172 16.3116C20.1722 16.3113 20.1724 16.3111 20.1726 16.3109C20.1727 16.3109 20.1728 16.3107 20.1729 16.3107C20.173 16.3106 20.1731 16.3105 20 16.1301ZM20.25 16.1301V14.0037H19.75V16.1301H20.25ZM20.25 14.0037V13.2677H19.75V14.0037H20.25ZM20 14.0037C19.7891 13.8695 19.7892 13.8692 19.7894 13.869C19.7894 13.869 19.7895 13.8688 19.7896 13.8687C19.7898 13.8684 19.7899 13.8682 19.79 13.868C19.7903 13.8676 19.7905 13.8673 19.7906 13.8671C19.7909 13.8667 19.791 13.8666 19.7908 13.8668C19.7905 13.8673 19.7892 13.8692 19.7869 13.8723C19.7823 13.8786 19.7737 13.8899 19.7604 13.9056C19.7339 13.9369 19.6887 13.9859 19.6201 14.047C19.4832 14.1688 19.2514 14.3399 18.886 14.5141C18.1549 14.8625 16.8835 15.2258 14.7601 15.2258V15.7258C16.9393 15.7258 18.2879 15.3531 19.1011 14.9655C19.5078 14.7716 19.7793 14.5746 19.9525 14.4205C20.039 14.3435 20.1007 14.2775 20.1422 14.2284C20.163 14.2038 20.1787 14.1835 20.19 14.1682C20.1956 14.1605 20.2001 14.1541 20.2035 14.1491C20.2053 14.1465 20.2068 14.1443 20.208 14.1425C20.2086 14.1415 20.2091 14.1407 20.2096 14.14C20.2099 14.1396 20.2101 14.1392 20.2103 14.1389C20.2104 14.1387 20.2106 14.1385 20.2106 14.1384C20.2107 14.1382 20.2109 14.138 20 14.0037ZM7.81614 22.75C4.79174 22.75 2.35762 20.3991 2.35762 17.5204H1.85762C1.85762 20.6943 4.53509 23.25 7.81614 23.25V22.75ZM7.81614 12.2909C8.55451 12.2909 9.25792 12.4312 9.89938 12.6852L10.0834 12.2203C9.38406 11.9434 8.61825 11.7909 7.81614 11.7909V12.2909ZM14.7601 10.8913C11.8399 10.8913 10.4615 11.6119 9.81233 12.2783L10.1705 12.6272C10.6901 12.0938 11.9136 11.3913 14.7601 11.3913V10.8913ZM9.89938 12.6852C10.2109 12.8085 10.5078 12.9587 10.7871 13.1327L11.0515 12.7082C10.7468 12.5185 10.423 12.3547 10.0834 12.2203L9.89938 12.6852ZM1 14.4944C0.847736 14.6927 0.847777 14.6927 0.84782 14.6928C0.847837 14.6928 0.847882 14.6928 0.847916 14.6928C0.847985 14.6929 0.848062 14.693 0.848148 14.693C0.84832 14.6932 0.848526 14.6933 0.848767 14.6935C0.849249 14.6939 0.84987 14.6943 0.850628 14.6949C0.852143 14.6961 0.85421 14.6976 0.856825 14.6996C0.862053 14.7035 0.869472 14.709 0.879054 14.716C0.898216 14.7299 0.926033 14.7498 0.962277 14.7747C1.03476 14.8244 1.141 14.8944 1.27919 14.9775C1.55549 15.1437 1.96 15.3627 2.4782 15.5781L2.67015 15.1164C2.17752 14.9116 1.79495 14.7042 1.53687 14.549C1.40787 14.4714 1.31009 14.407 1.24536 14.3625C1.21299 14.3403 1.1889 14.3231 1.17331 14.3117C1.16551 14.306 1.15984 14.3018 1.15632 14.2992C1.15456 14.2979 1.15334 14.297 1.15267 14.2964C1.15233 14.2962 1.15212 14.296 1.15206 14.296C1.15202 14.296 1.15202 14.296 1.15206 14.296C1.15208 14.296 1.1521 14.296 1.15214 14.296C1.15215 14.2961 1.15218 14.2961 1.15219 14.2961C1.15223 14.2961 1.15226 14.2961 1 14.4944ZM2.80211 15.45C3.11261 14.7608 3.57386 14.1475 4.14694 13.6487L3.81867 13.2715C3.19285 13.8162 2.68729 14.4876 2.34624 15.2446L2.80211 15.45ZM4.14694 13.6487C5.11547 12.8056 6.40215 12.2909 7.81614 12.2909V11.7909C6.27925 11.7909 4.87652 12.3508 3.81867 13.2715L4.14694 13.6487ZM1 12.2045C0.816569 12.3743 0.816669 12.3744 0.816771 12.3745C0.816809 12.3746 0.816914 12.3747 0.81699 12.3748C0.817143 12.3749 0.817308 12.3751 0.817485 12.3753C0.817839 12.3757 0.818242 12.3761 0.818695 12.3766C0.819601 12.3776 0.820705 12.3787 0.822009 12.3801C0.824618 12.3828 0.828028 12.3863 0.832259 12.3905C0.840723 12.399 0.852469 12.4105 0.867655 12.4246C0.898029 12.4529 0.942144 12.4918 1.00124 12.5388C1.11946 12.6328 1.29742 12.759 1.54494 12.8971C2.04034 13.1736 2.81187 13.4965 3.93707 13.7059L4.02854 13.2143C2.95472 13.0145 2.23485 12.7095 1.7886 12.4605C1.56529 12.3359 1.40987 12.2249 1.31241 12.1474C1.26367 12.1087 1.22937 12.0782 1.20829 12.0586C1.19775 12.0488 1.19051 12.0417 1.18642 12.0376C1.18437 12.0355 1.18311 12.0342 1.18262 12.0337C1.18238 12.0335 1.18232 12.0334 1.18246 12.0336C1.18253 12.0336 1.18264 12.0338 1.1828 12.0339C1.18288 12.034 1.18298 12.0341 1.18308 12.0342C1.18313 12.0343 1.18322 12.0344 1.18325 12.0344C1.18334 12.0345 1.18343 12.0346 1 12.2045ZM2.35762 17.5204C2.35762 17.3415 2.36699 17.1648 2.38527 16.9907L1.888 16.9385C1.86791 17.1299 1.85762 17.3241 1.85762 17.5204H2.35762ZM2.38527 16.9907C2.44218 16.4484 2.58556 15.9306 2.80211 15.45L2.34624 15.2446C2.10832 15.7727 1.9506 16.3421 1.888 16.9385L2.38527 16.9907ZM1 16.1301C0.768294 16.224 0.768366 16.2242 0.76844 16.2243C0.768466 16.2244 0.76854 16.2246 0.768591 16.2247C0.768693 16.225 0.768799 16.2252 0.768908 16.2255C0.769125 16.226 0.769355 16.2266 0.769599 16.2271C0.770086 16.2283 0.770626 16.2296 0.771221 16.2309C0.772411 16.2337 0.773821 16.2368 0.77547 16.2404C0.778768 16.2475 0.783021 16.2562 0.78838 16.2663C0.799103 16.2867 0.814219 16.3128 0.834923 16.3437C0.876395 16.4056 0.939873 16.4862 1.03458 16.5778C1.22424 16.7614 1.53597 16.9863 2.04092 17.1955L2.23235 16.7336C1.77761 16.5452 1.52102 16.3528 1.38229 16.2185C1.3128 16.1513 1.27206 16.0978 1.25036 16.0655C1.23948 16.0492 1.23328 16.0381 1.23057 16.033C1.22922 16.0304 1.22873 16.0293 1.22897 16.0298C1.22909 16.0301 1.22939 16.0307 1.22985 16.0318C1.23008 16.0323 1.23036 16.033 1.23066 16.0337C1.23082 16.0341 1.23098 16.0345 1.23116 16.0349C1.23124 16.0351 1.23133 16.0353 1.23143 16.0355C1.23147 16.0357 1.23154 16.0358 1.23156 16.0359C1.23163 16.0361 1.23171 16.0362 1 16.1301ZM10.7871 13.1327C11.6995 13.7009 12.4223 14.5224 12.8484 15.4909L13.3061 15.2895C12.838 14.2257 12.0462 13.3278 11.0515 12.7082L10.7871 13.1327ZM12.8484 15.4909C13.1229 16.1148 13.2747 16.8004 13.2747 17.5204H13.7747C13.7747 16.7294 13.6078 15.9753 13.3061 15.2895L12.8484 15.4909ZM14.7601 15.2258C14.1377 15.2258 13.5884 15.1946 13.1044 15.1417L13.0501 15.6387C13.5535 15.6938 14.121 15.7258 14.7601 15.7258V15.2258ZM13.2747 17.5204C13.2747 18.235 13.1252 18.9157 12.8546 19.5358L13.3129 19.7358C13.6103 19.0541 13.7747 18.3055 13.7747 17.5204H13.2747ZM14.7601 19.4786C14.1422 19.4786 13.5956 19.4448 13.1132 19.3875L13.0543 19.8841C13.5577 19.9438 14.124 19.9786 14.7601 19.9786V19.4786ZM12.8546 19.5358C12.5639 20.202 12.133 20.7992 11.5964 21.2928L11.935 21.6608C12.5211 21.1215 12.9935 20.4677 13.3129 19.7358L12.8546 19.5358ZM11.5964 21.2928C10.6163 22.1946 9.28488 22.75 7.81614 22.75V23.25C9.41257 23.25 10.8642 22.6459 11.935 21.6608L11.5964 21.2928ZM14.7601 21.605C13.5097 21.605 12.5567 21.4506 11.8367 21.2371L11.6946 21.7165C12.4671 21.9455 13.4687 22.105 14.7601 22.105V21.605ZM6.71413 15.3473V19.4015H7.21413V15.3473H6.71413ZM6.96413 15.5973H8.00759V15.0973H6.96413V15.5973ZM8.00759 17.2704H6.19731V17.7704H8.00759V17.2704ZM6.19731 18.5883H8.92377V18.0883H6.19731V18.5883ZM8.84417 16.4339C8.84417 16.8959 8.46962 17.2704 8.00759 17.2704V17.7704C8.74576 17.7704 9.34417 17.172 9.34417 16.4339H8.84417ZM8.00759 15.5973C8.46962 15.5973 8.84417 15.9718 8.84417 16.4339H9.34417C9.34417 15.6957 8.74576 15.0973 8.00759 15.0973V15.5973Z" fill="#FF6D1A"/>
</svg>
