<svg width="26" height="26" viewBox="0 0 26 26" fill="none" xmlns="http://www.w3.org/2000/svg">
<path d="M20 13.5C20 13.7761 19.7761 14 19.5 14C19.2239 14 19 13.7761 19 13.5C19 13.2239 19.2239 13 19.5 13C19.7761 13 20 13.2239 20 13.5Z" fill="#FF6D1A"/>
<path d="M11.8253 7.67735L11.8319 7.92727L11.8329 7.92724L11.8253 7.67735ZM2.06622 9.40697C2.20161 9.3799 2.28942 9.24819 2.26234 9.1128C2.23527 8.97741 2.10357 8.8896 1.96818 8.91668L2.06622 9.40697ZM6.76682 3V2.75H6.51682V3H6.76682ZM6.51682 7.0542C6.51682 7.19227 6.62875 7.3042 6.76682 7.3042C6.90489 7.3042 7.01682 7.19227 7.01682 7.0542H6.51682ZM6 4.92316C5.86193 4.92316 5.75 5.03509 5.75 5.17316C5.75 5.31123 5.86193 5.42316 6 5.42316V4.92316ZM6 5.741C5.86193 5.741 5.75 5.85293 5.75 5.991C5.75 6.12908 5.86193 6.241 6 6.241V5.741ZM8.5 6.241C8.63807 6.241 8.75 6.12908 8.75 5.991C8.75 5.85293 8.63807 5.741 8.5 5.741V6.241ZM12.75 6C12.75 6.13807 12.8619 6.25 13 6.25C13.1381 6.25 13.25 6.13807 13.25 6H12.75ZM3.79974 9.15014C3.88266 9.26054 4.03938 9.28281 4.14978 9.19989C4.26018 9.11697 4.28245 8.96025 4.19953 8.84986L3.79974 9.15014ZM5.55142 20.9593L5.71191 20.7677L5.55142 20.9593ZM6.03802 24.6506L6.1333 24.4195L6.03802 24.6506ZM5.49247 23.3502L5.72413 23.4441L5.49247 23.3502ZM8.98792 24.8176L8.75976 24.7154L8.98792 24.8176ZM7.69419 25.3333L7.59891 25.5644L7.69419 25.3333ZM10.563 23.337L10.6042 23.0904L10.563 23.337ZM9.38322 23.935L9.61137 24.0372L9.38322 23.935ZM15.7041 24.0315L15.4677 24.1128L15.7041 24.0315ZM14.4989 23.3352L14.4618 23.088L14.4989 23.3352ZM17.2469 25.3296L17.157 25.0964L17.2469 25.3296ZM19.6523 23.3487L19.4175 23.4346L19.6523 23.3487ZM19.073 24.6253L19.163 24.8586L19.073 24.6253ZM20.0349 21.6474L20.1725 21.8561L20.0349 21.6474ZM19.5227 22.9945L19.7574 22.9086L19.5227 22.9945ZM22.4067 18.9373L22.1853 18.8213L22.4067 18.9373ZM22.3388 12.7744L22.5789 12.7046L22.3388 12.7744ZM18.6465 8.58602L18.8963 8.57489L18.6465 8.58602ZM19.0147 5.11707L18.9459 4.87674L19.0147 5.11707ZM14.8541 7.90252L14.9026 7.65728L14.8541 7.90252ZM16.5113 7.42174C17.0385 6.60831 17.9082 5.69417 19.0836 5.3574L18.9459 4.87674C17.6077 5.26015 16.6522 6.28505 16.0917 7.14979L16.5113 7.42174ZM19.1024 5.42647C18.7487 6.22034 18.3457 7.44937 18.3968 8.59715L18.8963 8.57489C18.8502 7.54025 19.2183 6.39486 19.5591 5.63L19.1024 5.42647ZM19.151 9.60216C20.1834 10.082 21.6023 11.1366 22.0987 12.8442L22.5789 12.7046C22.0265 10.8047 20.4639 9.66099 19.3617 9.14874L19.151 9.60216ZM23.4188 13.9183H24V13.4183H23.4188V13.9183ZM24.75 14.6683V17.3072H25.25V14.6683H24.75ZM24 18.0572H23.3868V18.5572H24V18.0572ZM22.1853 18.8213C21.7614 19.6302 20.9911 20.7177 19.8973 21.4386L20.1725 21.8561C21.3607 21.073 22.1807 19.9073 22.6282 19.0533L22.1853 18.8213ZM19.2879 23.0804L19.4175 23.4346L19.887 23.2628L19.7574 22.9086L19.2879 23.0804ZM18.983 24.3921L17.157 25.0964L17.3369 25.5629L19.163 24.8586L18.983 24.3921ZM16.1778 24.6404L15.9405 23.9502L15.4677 24.1128L15.705 24.803L16.1778 24.6404ZM14.4618 23.088C13.4649 23.2375 12.0239 23.3274 10.6042 23.0904L10.5218 23.5836C12.009 23.8318 13.5056 23.737 14.536 23.5825L14.4618 23.088ZM9.15506 23.8328L8.75976 24.7154L9.21608 24.9197L9.61137 24.0372L9.15506 23.8328ZM7.78946 25.1022L6.1333 24.4195L5.94274 24.8817L7.59891 25.5644L7.78946 25.1022ZM5.72413 23.4441L6.16343 22.3612L5.7001 22.1733L5.2608 23.2562L5.72413 23.4441ZM5.71191 20.7677C4.33081 19.6113 2.63961 17.1234 3.58465 13.4657L3.10055 13.3406C2.09569 17.2298 3.90105 19.9036 5.39093 21.151L5.71191 20.7677ZM3.58465 13.4657C4.1344 11.338 5.60579 9.97109 7.24671 9.1235C8.89147 8.27393 10.6877 7.95738 11.8319 7.92727L11.8187 7.42744C10.6125 7.45918 8.73994 7.78943 7.01725 8.67926C5.29072 9.57107 3.69597 11.0362 3.10055 13.3406L3.58465 13.4657ZM11.8329 7.92724C12.4729 7.90764 13.7492 7.93862 14.8055 8.14776L14.9026 7.65728C13.7956 7.4381 12.4781 7.40725 11.8176 7.42747L11.8329 7.92724ZM1.96818 8.91668C1.61103 8.9881 1.29727 9.2653 1.08371 9.61324C0.86625 9.96753 0.731378 10.4267 0.752089 10.9192C0.794496 11.9276 1.48025 13.009 3.25917 13.6388L3.42604 13.1675C1.79067 12.5885 1.28349 11.6553 1.25165 10.8982C1.23524 10.508 1.34291 10.1468 1.50984 9.87479C1.68067 9.59647 1.89313 9.44159 2.06622 9.40697L1.96818 8.91668ZM6.51682 3V5.17316H7.01682V3H6.51682ZM6.51682 5.17316V5.991H7.01682V5.17316H6.51682ZM6.51682 5.991V7.0542H7.01682V5.991H6.51682ZM6.76682 3.25H7.81028V2.75H6.76682V3.25ZM7.81028 4.92316H6.76682V5.42316H7.81028V4.92316ZM6.76682 4.92316H6V5.42316H6.76682V4.92316ZM6 6.241H6.76682V5.741H6V6.241ZM6.76682 6.241H8.5V5.741H6.76682V6.241ZM8.64686 4.08658C8.64686 4.54861 8.27231 4.92316 7.81028 4.92316V5.42316C8.54845 5.42316 9.14686 4.82475 9.14686 4.08658H8.64686ZM7.81028 3.25C8.27231 3.25 8.64686 3.62455 8.64686 4.08658H9.14686C9.14686 3.34841 8.54845 2.75 7.81028 2.75V3.25ZM3.25 6C3.25 3.37665 5.37665 1.25 8 1.25V0.75C5.1005 0.75 2.75 3.1005 2.75 6H3.25ZM8 1.25C10.6234 1.25 12.75 3.37665 12.75 6H13.25C13.25 3.1005 10.8995 0.75 8 0.75V1.25ZM4.19953 8.84986C3.60324 8.056 3.25 7.06961 3.25 6H2.75C2.75 7.1816 3.14065 8.27268 3.79974 9.15014L4.19953 8.84986ZM19.75 13.5C19.75 13.6381 19.6381 13.75 19.5 13.75V14.25C19.9142 14.25 20.25 13.9142 20.25 13.5H19.75ZM19.5 13.75C19.3619 13.75 19.25 13.6381 19.25 13.5H18.75C18.75 13.9142 19.0858 14.25 19.5 14.25V13.75ZM19.25 13.5C19.25 13.3619 19.3619 13.25 19.5 13.25V12.75C19.0858 12.75 18.75 13.0858 18.75 13.5H19.25ZM19.5 13.25C19.6381 13.25 19.75 13.3619 19.75 13.5H20.25C20.25 13.0858 19.9142 12.75 19.5 12.75V13.25ZM6.16343 22.3612C6.39984 21.7785 6.15928 21.1422 5.71191 20.7677L5.39093 21.151C5.70801 21.4165 5.83848 21.8322 5.7001 22.1733L6.16343 22.3612ZM6.1333 24.4195C5.75186 24.2622 5.56904 23.8265 5.72413 23.4441L5.2608 23.2562C5.00232 23.8934 5.30702 24.6197 5.94274 24.8817L6.1333 24.4195ZM8.75976 24.7154C8.59404 25.0854 8.16428 25.2567 7.78946 25.1022L7.59891 25.5644C8.22361 25.8219 8.93987 25.5364 9.21608 24.9197L8.75976 24.7154ZM10.6042 23.0904C10.0219 22.9932 9.40756 23.2691 9.15506 23.8328L9.61137 24.0372C9.75996 23.7055 10.1363 23.5192 10.5218 23.5836L10.6042 23.0904ZM15.9405 23.9502C15.7276 23.3309 15.0835 22.9947 14.4618 23.088L14.536 23.5825C14.9456 23.521 15.3416 23.7459 15.4677 24.1128L15.9405 23.9502ZM17.157 25.0964C16.7603 25.2494 16.316 25.0425 16.1778 24.6404L15.705 24.803C15.9353 25.473 16.6759 25.8179 17.3369 25.5629L17.157 25.0964ZM19.4175 23.4346C19.558 23.8188 19.3647 24.2448 18.983 24.3921L19.163 24.8586C19.7992 24.6132 20.1213 23.9032 19.887 23.2628L19.4175 23.4346ZM19.8973 21.4386C19.3777 21.7811 19.0557 22.4457 19.2879 23.0804L19.7574 22.9086C19.6225 22.5399 19.8 22.1016 20.1725 21.8561L19.8973 21.4386ZM23.3868 18.0572C22.8621 18.0572 22.4146 18.3837 22.1853 18.8213L22.6282 19.0533C22.7858 18.7525 23.0777 18.5572 23.3868 18.5572V18.0572ZM24.75 17.3072C24.75 17.7215 24.4142 18.0572 24 18.0572V18.5572C24.6904 18.5572 25.25 17.9976 25.25 17.3072H24.75ZM24 13.9183C24.4142 13.9183 24.75 14.254 24.75 14.6683H25.25C25.25 13.9779 24.6904 13.4183 24 13.4183V13.9183ZM22.0987 12.8442C22.2657 13.4184 22.7648 13.9183 23.4188 13.9183V13.4183C23.0407 13.4183 22.7001 13.1215 22.5789 12.7046L22.0987 12.8442ZM18.3968 8.59715C18.4185 9.08395 18.778 9.42879 19.151 9.60216L19.3617 9.14874C19.0834 9.01939 18.9066 8.80558 18.8963 8.57489L18.3968 8.59715ZM19.0836 5.3574C19.0924 5.35487 19.0935 5.35671 19.0912 5.35587C19.0904 5.35558 19.0936 5.3565 19.0982 5.36267C19.1083 5.37619 19.1142 5.40017 19.1024 5.42647L19.5591 5.63C19.6473 5.43223 19.6131 5.21685 19.4991 5.06391C19.3818 4.90643 19.1742 4.81131 18.9459 4.87674L19.0836 5.3574ZM16.0917 7.14979C15.8431 7.53344 15.3481 7.74548 14.9026 7.65728L14.8055 8.14776C15.4547 8.27629 16.153 7.97453 16.5113 7.42174L16.0917 7.14979Z" fill="#FF6D1A"/>
</svg>
