<svg width="24" height="24" viewBox="0 0 24 24" fill="none" xmlns="http://www.w3.org/2000/svg">
<path d="M10.0408 3.75782C9.61539 4.47242 9.65674 5.77117 9.73059 6.33122C9.76384 7.54347 10.4839 9.47885 11.2593 10.2658C12.0347 11.0527 11.9904 11.6269 12.1233 11.8608C12.2563 12.0948 12.5886 12.3925 13.3197 12.3925C14.0508 12.3925 14.2502 12.1586 14.5825 11.8608C14.9149 11.5631 14.8262 10.9463 15.4023 10.2658C15.8631 9.72131 16.3032 8.84791 16.4657 8.47927C16.5691 8.23115 16.8157 7.49245 16.9753 6.52264C17.1348 5.55283 17.0417 4.7007 16.9753 4.39587C16.9679 4.14065 16.674 3.48134 15.5573 2.88585C14.4407 2.29035 12.8766 2.38251 12.2341 2.50303C11.6802 2.62355 10.4661 3.04323 10.0408 3.75782Z" stroke="#FF6D1A" stroke-width="0.7" stroke-linecap="round" stroke-linejoin="round"/>
<path d="M12.4336 10.993C12.5997 10.983 12.9674 11.0473 13.1095 11.3845" stroke="#FF6D1A" stroke-width="0.7" stroke-linecap="round" stroke-linejoin="round"/>
<path d="M14.3945 10.993C14.2284 10.983 13.8607 11.0473 13.7186 11.3845" stroke="#FF6D1A" stroke-width="0.7" stroke-linecap="round" stroke-linejoin="round"/>
<path d="M15.3572 2.6734C15.5049 2.53161 15.8313 2.15446 15.9554 1.78015C16.1104 1.31226 15.9997 1.07832 16.1326 1.01451C16.2655 0.950711 16.7086 1.07832 16.908 1.78015C17.0675 2.34162 16.9745 2.83644 16.908 3.01366L16.7308 3.54536" stroke="#FF6D1A" stroke-width="0.7" stroke-linecap="round" stroke-linejoin="round"/>
<path d="M11.4124 2.6734C11.2647 2.53161 10.9382 2.15446 10.8142 1.78015C10.6591 1.31226 10.7699 1.07832 10.6369 1.01451C10.504 0.950711 10.0609 1.07832 9.86151 1.78015C9.702 2.34162 9.79505 2.83644 9.86151 3.01366L10.0388 3.54536" stroke="#FF6D1A" stroke-width="0.7" stroke-linecap="round" stroke-linejoin="round"/>
<ellipse cx="15.5147" cy="5.90604" rx="0.420945" ry="0.404087" fill="#FF6D1A"/>
<ellipse cx="11.0811" cy="5.90604" rx="0.420945" ry="0.404087" fill="#FF6D1A"/>
<path d="M16.8193 3.56593C17.1295 3.47377 17.8384 3.43833 18.1929 4.03382C18.636 4.77819 18.4145 5.26735 19.2785 5.79904C20.1425 6.33073 20.2976 6.56468 20.0982 6.75609C19.8988 6.9475 18.3037 7.39412 17.1959 5.79904" stroke="#FF6D1A" stroke-width="0.7" stroke-linecap="round" stroke-linejoin="round"/>
<path d="M10.0205 3.56593C9.71037 3.47377 9.00141 3.43833 8.64693 4.03382C8.20383 4.77819 8.42538 5.26735 7.56134 5.79904C6.69729 6.33073 6.54221 6.56468 6.7416 6.75609C6.941 6.9475 8.53616 7.39412 9.64391 5.79904" stroke="#FF6D1A" stroke-width="0.7" stroke-linecap="round" stroke-linejoin="round"/>
<path d="M11.7902 10.8221C11.9987 10.4655 12.3356 10.2064 12.7669 10.0707C13.5851 9.81339 14.4885 10.147 14.9922 10.9258" stroke="#FF6D1A" stroke-width="0.7" stroke-linecap="round"/>
<path d="M9.95312 7.6033C10.0753 7.61894 10.2006 7.62695 10.3285 7.62695C11.7363 7.62695 13.1656 6.73254 13.1656 5.39384C13.1656 4.3697 12.2096 3.30309 11.2654 2.94805" stroke="#FF6D1A" stroke-width="0.7" stroke-linecap="round"/>
<path d="M17.7705 19.3471C17.7989 19.4768 17.8306 19.5941 17.8597 19.6874C17.973 19.629 18.0761 19.5714 18.1698 19.5146M17.7705 19.3471C17.6695 18.8853 17.6106 18.2676 17.8597 18.0285C18.2585 17.6457 18.7902 17.8158 18.9231 18.0285C19.0462 18.2254 19.3403 18.8052 18.1698 19.5146M17.7705 19.3471C17.5861 19.4889 17.195 19.9426 17.1064 20.6232C16.9956 21.4739 17.6381 21.5377 17.9926 20.8146C18.2762 20.2361 18.2289 19.7069 18.1698 19.5146" stroke="#FF6D1A" stroke-width="0.7" stroke-linecap="round" stroke-linejoin="round"/>
<path d="M13.1553 2.43945C13.1456 2.50878 13.1406 2.57986 13.1406 2.65236C13.1406 3.45095 13.8151 4.09834 14.6472 4.09834C15.2837 4.09834 15.828 3.71945 16.0487 3.18382" stroke="#FF6D1A" stroke-width="0.7" stroke-linecap="round"/>
<path d="M10.2193 13.5812C9.98692 13.6736 9.53222 13.9953 9.57265 14.5437" stroke="#FF6D1A" stroke-width="0.7" stroke-linecap="round" stroke-linejoin="round"/>
<path d="M2.75 15.2864C3.00109 15.2722 3.55644 15.3715 3.76913 15.8819" stroke="#FF6D1A" stroke-width="0.7" stroke-linecap="round" stroke-linejoin="round"/>
<path d="M10.3456 20.3352C10.414 20.6619 10.2853 21.0382 9.93288 21.389C9.58254 21.7378 9.03789 22.0283 8.37789 22.1556C7.71789 22.2829 7.0986 22.2169 6.63512 22.0252C6.16887 21.8323 5.8987 21.5329 5.8303 21.2062C5.7619 20.8794 5.89062 20.5031 6.24305 20.1523C6.5934 19.8035 7.13805 19.513 7.79805 19.3857C8.45805 19.2584 9.07733 19.3244 9.54082 19.5161C10.0071 19.709 10.2772 20.0084 10.3456 20.3352Z" stroke="#FF6D1A" stroke-width="0.7"/>
<line x1="0.35" y1="-0.35" x2="0.746117" y2="-0.35" transform="matrix(0.242547 0.97014 -0.974472 0.224507 8.66406 20.1348)" stroke="#FF6D1A" stroke-width="0.7" stroke-linecap="round"/>
<line x1="0.35" y1="-0.35" x2="0.746117" y2="-0.35" transform="matrix(0.242547 0.97014 -0.974472 0.224507 7.11719 20.4316)" stroke="#FF6D1A" stroke-width="0.7" stroke-linecap="round"/>
<ellipse cx="9.97563" cy="17.6892" rx="0.420945" ry="0.404087" fill="#FF6D1A"/>
<path d="M8.61807 14.1406C8.54724 13.6879 8.70145 12.769 9.88493 12.714C11.0684 12.659 11.8231 12.9575 12.0525 13.1136C11.613 13.2143 10.7365 13.6956 10.7467 14.815" stroke="#FF6D1A" stroke-width="0.7" stroke-linecap="round" stroke-linejoin="round"/>
<path d="M4.56695 15.0728C4.43402 14.6332 3.89344 13.8605 2.79455 14.2858C1.69567 14.7112 1.14031 15.2854 1 15.5194C1.4431 15.4343 2.44894 15.5194 2.92748 16.5402" stroke="#FF6D1A" stroke-width="0.7" stroke-linecap="round" stroke-linejoin="round"/>
<path d="M2.92588 16.5839C2.79626 16.9944 2.72656 17.43 2.72656 17.8812C2.72656 19.9584 4.20384 21.7045 6.20489 22.204M10.7245 14.7773C11.5337 15.5809 12.0317 16.6752 12.0317 17.8812C12.0317 19.1624 11.4697 20.3176 10.5694 21.1321" stroke="#FF6D1A" stroke-width="0.7" stroke-linecap="round" stroke-linejoin="round"/>
<ellipse cx="20.1631" cy="17.4334" rx="0.420945" ry="0.404087" fill="#FF6D1A"/>
<ellipse cx="4.78813" cy="18.8787" rx="0.420945" ry="0.404087" fill="#FF6D1A"/>
<ellipse cx="17.2842" cy="16.8377" rx="0.420945" ry="0.404087" fill="#FF6D1A"/>
<line x1="0.35" y1="-0.35" x2="4.0399" y2="-0.35" transform="matrix(0.97908 -0.203477 0.220001 0.9755 4.5 15.2422)" stroke="#FF6D1A" stroke-width="0.7" stroke-linecap="round"/>
<path d="M17.5615 19.3757C16.1733 18.6063 15.6977 16.9024 16.4992 15.5699C16.9315 14.851 17.6068 14.3787 18.3711 14.2202M18.3711 14.2202C18.2825 15.1734 18.6739 15.7797 18.8807 15.9638C18.9693 16.0134 19.1688 16.0658 19.2574 15.8787C19.3682 15.6447 19.4125 15.2407 19.9885 15.2194C20.5645 15.1981 20.6308 15.2324 20.8968 14.8431M18.3711 14.2202C18.3785 13.8586 18.4819 13.0458 18.8364 12.6885C19.2795 12.2419 19.4789 13.1139 19.5453 13.3478C19.6118 13.5818 19.8112 13.7094 20.1657 13.5605C20.5202 13.4116 20.8525 13.2202 21.0076 13.4329C21.1627 13.6456 21.2733 14.2328 20.8968 14.8431M20.8968 14.8431C21.9427 15.6978 22.2375 17.1732 21.5261 18.3559C20.8464 19.4861 19.4664 19.9861 18.2161 19.6427" stroke="#FF6D1A" stroke-width="0.7" stroke-linecap="round"/>
</svg>
