<svg width="24" height="24" viewBox="0 0 24 24" fill="none" xmlns="http://www.w3.org/2000/svg">
<g clip-path="url(#clip0_602_3818)">
<path fill-rule="evenodd" clip-rule="evenodd" d="M11.7808 1.04811C11.9036 0.983718 12.0513 0.983979 12.1738 1.0488L20.2094 5.2998C20.3428 5.37041 20.426 5.50668 20.426 5.65484V15.6585C20.426 15.8087 20.3406 15.9465 20.2044 16.0162L12.1688 20.1286C12.0489 20.1899 11.9059 20.1902 11.7858 20.1292L3.68017 16.0169C3.54319 15.9474 3.45724 15.8092 3.45724 15.6585V5.65484C3.45724 5.50615 3.54096 5.36949 3.67516 5.29911L11.7808 1.04811ZM9.72402 3.0437L16.9505 6.82343L19.1457 5.6558L11.9758 1.86275L9.72402 3.0437ZM19.5984 6.33486L17.3659 7.52231V10.5296C17.3659 10.6845 17.2752 10.8257 17.1324 10.8931L15.5674 11.6324C15.4391 11.693 15.288 11.6849 15.1673 11.6111C15.0466 11.5372 14.9733 11.408 14.9733 11.2689V8.79496L12.3904 10.1688V19.1032L19.5984 15.4143V6.33486ZM11.5629 19.1058V10.1698L4.28482 6.33205V15.4133L11.5629 19.1058ZM4.74336 5.6558L11.9758 9.46947L14.5175 8.11753L7.28152 4.32467L4.74336 5.6558ZM8.15582 3.86614L15.3856 7.65577L16.0818 7.28546L8.8492 3.5025L8.15582 3.86614ZM16.5383 7.9625L15.8009 8.35477V10.6248L16.5383 10.2764V7.9625ZM0.0437028 3.68578C0.145824 3.48625 0.394344 3.40529 0.598788 3.50496L2.51424 4.43874C2.71868 4.53841 2.80163 4.78095 2.69951 4.98048C2.59739 5.18001 2.34887 5.26097 2.14442 5.1613L1.7854 4.98628V13.9896L2.51636 14.3511C2.72021 14.4519 2.80173 14.6949 2.69844 14.8938C2.59515 15.0928 2.34615 15.1724 2.1423 15.0716L0.226852 14.1243C0.0229981 14.0235 -0.0585227 13.7805 0.0447705 13.5815C0.148064 13.3826 0.397056 13.303 0.60091 13.4038L0.957815 13.5803V4.58283L0.228974 4.22752C0.0245306 4.12785 -0.0584183 3.88531 0.0437028 3.68578ZM21.2828 16.1605C21.391 15.964 21.6418 15.8903 21.8432 15.9959L23.782 17.0124C23.9833 17.118 24.0588 17.3628 23.9506 17.5593C23.8425 17.7558 23.5916 17.8295 23.3903 17.7239L22.6147 17.3173L15.2913 21.0784L15.5916 21.245C15.7903 21.3552 15.8597 21.6018 15.7468 21.7957C15.6339 21.9896 15.3812 22.0574 15.1826 21.9472L13.2671 20.8844C13.0685 20.7742 12.999 20.5276 13.1119 20.3337C13.2248 20.1398 13.4775 20.072 13.6761 20.1823L14.437 20.6044L21.7353 16.8562L21.4515 16.7074C21.2502 16.6018 21.1747 16.357 21.2828 16.1605ZM2.69285 16.1587C2.80202 16.3547 2.72777 16.5999 2.527 16.7064L2.24784 16.8546L9.53185 20.6061L10.3294 20.1792C10.5298 20.072 10.7813 20.1436 10.8912 20.3391C11.0011 20.5347 10.9277 20.7802 10.7274 20.8874L8.74183 21.9502C8.54146 22.0574 8.28994 21.9858 8.18005 21.7903C8.07015 21.5947 8.14351 21.3492 8.34388 21.242L8.66231 21.0715L1.37453 17.3181L0.611555 17.723C0.410788 17.8295 0.159533 17.7571 0.0503604 17.5611C-0.0588121 17.3652 0.0154398 17.12 0.216207 17.0134L2.13165 15.9969C2.33242 15.8903 2.58368 15.9628 2.69285 16.1587Z" fill="#FF6D1A"/>
</g>
<defs>
<clipPath id="clip0_602_3818">
<rect width="24" height="24" fill="white"/>
</clipPath>
</defs>
</svg>
