<svg width="24" height="24" viewBox="0 0 24 24" fill="none" xmlns="http://www.w3.org/2000/svg">
<path fill-rule="evenodd" clip-rule="evenodd" d="M0.800391 2.80078C1.0213 2.80078 1.20039 2.97987 1.20039 3.20078V11.9935H4.00444C4.22536 11.9935 4.40444 12.1726 4.40444 12.3935C4.40444 12.6144 4.22536 12.7935 4.00444 12.7935H0.800391C0.579477 12.7935 0.400391 12.6144 0.400391 12.3935V3.20078C0.400391 2.97987 0.579477 2.80078 0.800391 2.80078ZM23.2004 2.80078C23.4213 2.80078 23.6004 2.97987 23.6004 3.20078V12.3935C23.6004 12.6144 23.4213 12.7935 23.2004 12.7935H19.9396C19.7187 12.7935 19.5396 12.6144 19.5396 12.3935C19.5396 12.1726 19.7187 11.9935 19.9396 11.9935H22.8004V3.20078C22.8004 2.97987 22.9795 2.80078 23.2004 2.80078ZM19.2635 3.72888C19.4217 3.57469 19.6749 3.57793 19.8291 3.73613L21.5636 5.51567C21.6625 5.61712 21.7104 5.74881 21.7104 5.87714C21.7104 6.00548 21.6625 6.13717 21.5636 6.23862L19.8291 8.01816C19.6749 8.17636 19.4217 8.1796 19.2635 8.02541C19.1053 7.87121 19.102 7.61797 19.2562 7.45977L20.4089 6.27714H3.70529L4.85798 7.45977C5.01217 7.61797 5.00892 7.87121 4.85072 8.02541C4.69252 8.1796 4.43928 8.17636 4.28508 8.01816L2.5506 6.23862C2.45172 6.13718 2.40383 6.00548 2.40383 5.87715C2.40383 5.74881 2.45172 5.61712 2.5506 5.51567L4.28508 3.73613C4.43928 3.57793 4.69252 3.57469 4.85072 3.72888C5.00892 3.88308 5.01217 4.13632 4.85798 4.29452L3.70529 5.47714H20.4089L19.2562 4.29452C19.102 4.13632 19.1053 3.88308 19.2635 3.72888ZM0.400391 14.8081C0.400391 14.5871 0.579477 14.4081 0.800391 14.4081H23.2004C23.4213 14.4081 23.6004 14.5871 23.6004 14.8081V20.8008C23.6004 21.0217 23.4213 21.2008 23.2004 21.2008H0.800391C0.579477 21.2008 0.400391 21.0217 0.400391 20.8008V14.8081ZM1.20039 15.2081V20.4008H22.8004V15.2081H20.3396V17.3971C20.3396 17.6181 20.1605 17.7971 19.9396 17.7971C19.7187 17.7971 19.5396 17.6181 19.5396 17.3971V15.2081H17.8728V16.699C17.8728 16.9199 17.6937 17.099 17.4728 17.099C17.2519 17.099 17.0728 16.9199 17.0728 16.699V15.2081H15.0941V16.699C15.0941 16.9199 14.915 17.099 14.6941 17.099C14.4731 17.099 14.2941 16.9199 14.2941 16.699V15.2081H12.5989V17.3971C12.5989 17.6181 12.4198 17.7971 12.1989 17.7971C11.978 17.7971 11.7989 17.6181 11.7989 17.3971V15.2081H9.87685V16.699C9.87685 16.9199 9.69776 17.099 9.47685 17.099C9.25593 17.099 9.07685 16.9199 9.07685 16.699V15.2081H7.15482V16.699C7.15482 16.9199 6.97573 17.099 6.75482 17.099C6.53391 17.099 6.35482 16.9199 6.35482 16.699V15.2081H4.40444V17.3971C4.40444 17.6181 4.22536 17.7971 4.00444 17.7971C3.78353 17.7971 3.60444 17.6181 3.60444 17.3971V15.2081H1.20039Z" fill="#FF6D1A"/>
</svg>
