<svg width="24" height="24" viewBox="0 0 24 24" fill="none" xmlns="http://www.w3.org/2000/svg">
<path fill-rule="evenodd" clip-rule="evenodd" d="M5.40892 4.42111C5.54497 4.57111 5.53366 4.80299 5.38366 4.93904C3.36797 6.7673 2.10052 9.41751 2.10052 12.3675C2.10052 15.3174 3.36797 17.9676 5.38366 19.7959C5.53366 19.9319 5.54497 20.1638 5.40892 20.3138C5.27287 20.4638 5.04098 20.4751 4.89099 20.339C2.72768 18.3769 1.36719 15.5318 1.36719 12.3675C1.36719 9.20311 2.72768 6.358 4.89099 4.39586C5.04098 4.25981 5.27287 4.27112 5.40892 4.42111ZM18.5921 4.42111C18.7282 4.27112 18.9601 4.25981 19.1101 4.39586C21.2734 6.358 22.6339 9.20311 22.6339 12.3675C22.6339 15.5318 21.2734 18.3769 19.1101 20.339C18.9601 20.4751 18.7282 20.4638 18.5921 20.3138C18.4561 20.1638 18.4674 19.9319 18.6174 19.7959C20.6331 17.9676 21.9005 15.3174 21.9005 12.3675C21.9005 9.41751 20.6331 6.7673 18.6174 4.93904C18.4674 4.80299 18.4561 4.57111 18.5921 4.42111ZM13.4552 5.21091C13.6113 5.27689 13.7019 5.44127 13.6742 5.60849L12.8285 10.7209H15.9572C16.0971 10.7209 16.2248 10.8005 16.2864 10.926C16.348 11.0516 16.3329 11.2013 16.2473 11.3119L10.0832 19.2846C9.97582 19.4235 9.78515 19.4668 9.62836 19.3879C9.47157 19.3091 9.39263 19.1302 9.44006 18.9613L11.0586 13.1957H7.93967C7.8013 13.1957 7.67471 13.1178 7.61235 12.9943C7.54999 12.8708 7.56248 12.7226 7.64464 12.6113L13.0175 5.33092C13.1181 5.19455 13.2991 5.14493 13.4552 5.21091ZM8.66597 12.4624H11.5424C11.6571 12.4624 11.7653 12.5161 11.8346 12.6076C11.9039 12.699 11.9264 12.8176 11.8954 12.9281L10.6553 17.3458L15.2103 11.4543H12.3962C12.2885 11.4543 12.1862 11.4069 12.1166 11.3248C12.0469 11.2426 12.0169 11.134 12.0344 11.0278L12.7018 6.99366L8.66597 12.4624ZM7.19096 6.42574C7.32694 6.5758 7.31552 6.80768 7.16546 6.94366C5.6923 8.27858 4.76611 10.2135 4.76611 12.3675C4.76611 14.5214 5.6923 16.4563 7.16546 17.7913C7.31552 17.9272 7.32694 18.1591 7.19096 18.3092C7.05498 18.4592 6.8231 18.4707 6.67304 18.3347C5.05221 16.8659 4.03277 14.7361 4.03277 12.3675C4.03277 9.99884 5.05221 7.86898 6.67304 6.40024C6.8231 6.26426 7.05498 6.27568 7.19096 6.42574ZM16.8101 6.42574C16.9461 6.27568 17.1779 6.26426 17.328 6.40024C18.9488 7.86898 19.9683 9.99884 19.9683 12.3675C19.9683 14.7361 18.9488 16.8659 17.328 18.3347C17.1779 18.4707 16.9461 18.4592 16.8101 18.3092C16.6741 18.1591 16.6855 17.9272 16.8356 17.7913C18.3087 16.4563 19.2349 14.5214 19.2349 12.3675C19.2349 10.2135 18.3087 8.27858 16.8356 6.94366C16.6855 6.80768 16.6741 6.5758 16.8101 6.42574Z" fill="#FF6D1A"/>
</svg>
