<svg width="24" height="24" viewBox="0 0 24 24" fill="none" xmlns="http://www.w3.org/2000/svg">
<path d="M19.3507 4.64293C17.4689 2.76253 14.8701 1.59961 11.9996 1.59961C6.25585 1.59961 1.59961 6.25585 1.59961 11.9996C1.59961 13.7473 2.03072 15.3944 2.7924 16.8402M19.3507 4.64293L19.5001 1.59961M19.3507 4.64293L16.3609 4.8586M4.595 19.3025C6.4809 21.2145 9.10185 22.3996 11.9996 22.3996C17.7434 22.3996 22.3996 17.7434 22.3996 11.9996C22.3996 10.1349 21.9089 8.38484 21.0495 6.8715M4.595 19.3025L4.42726 22.3996M4.595 19.3025L7.61436 19.1167M15.9775 11.9996C15.9775 14.1965 14.1965 15.9775 11.9996 15.9775C9.80269 15.9775 8.02173 14.1965 8.02173 11.9996C8.02173 9.80269 9.80269 8.02173 11.9996 8.02173C14.1965 8.02173 15.9775 9.80269 15.9775 11.9996ZM10.8015 6.5696L11.0411 4.8586H12.9342L13.1259 6.55431C13.8114 6.69536 14.4509 6.96263 15.019 7.33074L16.3609 6.27242L17.6789 7.54247L16.6049 8.8844C17.0147 9.48903 17.3086 10.1786 17.4545 10.9213L19.1885 11.089V12.8623L17.4545 13.0779C17.3105 13.8108 17.0225 14.492 16.6211 15.0909L17.7028 16.3849L16.3369 17.7028L15.0496 16.6485C14.4608 17.0356 13.794 17.3138 13.0779 17.4545L12.9102 19.2365H11.065L10.9213 17.4545C10.1982 17.3124 9.52537 17.0301 8.93233 16.6371L7.54247 17.7268L6.22449 16.4088L7.37472 15.0858C6.98827 14.5078 6.70728 13.8533 6.5593 13.1498L4.78671 12.8862V11.113L6.5593 10.8494C6.70421 10.1605 6.97664 9.51866 7.35076 8.94959L6.24846 7.56643L7.49454 6.34431L8.90836 7.37812C9.47446 6.99872 10.1141 6.72057 10.8015 6.5696Z" stroke="#FF6D1A" stroke-linecap="round" stroke-linejoin="round"/>
</svg>
