<svg width="24" height="24" viewBox="0 0 24 24" fill="none" xmlns="http://www.w3.org/2000/svg">
<path fill-rule="evenodd" clip-rule="evenodd" d="M3.50579 6.01135C3.53676 6.00381 3.56852 6 3.60039 6H20.3313C20.7029 6 21.1318 6.07236 21.4876 6.35002C21.9939 6.74518 22.7483 7.55399 23.2053 9.05509C23.4444 9.84012 23.6004 10.809 23.6004 12C23.6004 13.191 23.4444 14.1599 23.2053 14.9449C22.7483 16.446 21.9939 17.2548 21.4876 17.65C21.1318 17.9276 20.7029 18 20.3313 18H3.60039C3.56852 18 3.53676 17.9962 3.50579 17.9887L3.60039 17.6C3.50579 17.9887 3.50613 17.9887 3.50579 17.9887L3.5044 17.9883L3.50275 17.9879L3.49867 17.9869L3.48747 17.9839C3.47867 17.9815 3.46722 17.9783 3.45332 17.9741C3.42551 17.9657 3.38781 17.9534 3.34165 17.9364C3.24935 17.9023 3.1229 17.8491 2.97388 17.7692C2.6755 17.6092 2.28684 17.3425 1.90181 16.9106C1.12566 16.04 0.400391 14.5398 0.400391 12C0.400391 9.46019 1.12566 7.96001 1.90181 7.0894C2.28684 6.65751 2.6755 6.3908 2.97388 6.23082C3.1229 6.15091 3.24935 6.09766 3.34165 6.06361C3.38781 6.04658 3.42551 6.03433 3.45332 6.02593C3.46722 6.02173 3.47867 6.01849 3.48747 6.0161L3.49867 6.01313L3.50275 6.0121L3.5044 6.01169L3.50579 6.01135C3.50613 6.01127 3.50579 6.01135 3.60039 6.4L3.50579 6.01135ZM4.94291 6.8H6.66899C6.7133 6.83672 6.77291 6.88935 6.84347 6.95955C7.01472 7.12993 7.25097 7.40426 7.49007 7.80688C7.64607 8.06958 7.80438 8.38873 7.94676 8.7716H6.13975C5.81505 7.84805 5.36937 7.22071 4.94291 6.8ZM6.37018 9.5716C6.52685 10.2513 6.62119 11.0535 6.62119 12C6.62119 12.9465 6.52685 13.7487 6.37018 14.4284H8.19199C8.35601 13.7646 8.46439 12.9621 8.46439 12C8.46439 11.0379 8.35601 10.2354 8.19199 9.5716H6.37018ZM9.0138 9.5716C9.16768 10.2588 9.26439 11.0635 9.26439 12C9.26439 12.9365 9.16768 13.7412 9.0138 14.4284H9.72459C9.8823 13.7558 9.98759 12.9508 9.98759 12C9.98759 11.0492 9.8823 10.2442 9.72459 9.5716H9.0138ZM10.5444 9.5716C10.6928 10.2641 10.7876 11.0704 10.7876 12C10.7876 12.9296 10.6928 13.7359 10.5444 14.4284L18.2434 14.4284C18.4224 13.7384 18.5444 12.9279 18.5444 12C18.5444 11.0721 18.4224 10.2616 18.2434 9.5716H10.5444ZM17.9943 8.7716H10.3362C10.1831 8.27669 10.0051 7.8564 9.82516 7.50538C9.68229 7.22663 9.53868 6.99245 9.40625 6.8H16.9234C16.9634 6.84975 17.0132 6.91423 17.0704 6.99329C17.2307 7.2153 17.4481 7.55174 17.6665 7.9995C17.7779 8.22792 17.8897 8.4854 17.9943 8.7716ZM19.0676 9.5716C19.2348 10.2771 19.3444 11.0875 19.3444 12C19.3444 12.9125 19.2348 13.7229 19.0676 14.4284H19.7801C19.9645 13.7398 20.09 12.9298 20.09 12C20.09 11.0702 19.9645 10.2602 19.7801 9.5716H19.0676ZM19.5227 8.7716H18.8413C18.701 8.34732 18.5435 7.97272 18.3855 7.64877C18.2202 7.30994 18.0544 7.0267 17.9072 6.8H18.4075C18.4497 6.84992 18.5029 6.91554 18.5642 6.99677C18.7302 7.21683 18.9552 7.55078 19.1812 7.99655C19.2973 8.22537 19.4137 8.48379 19.5227 8.7716ZM20.6058 9.5716C20.7776 10.2762 20.89 11.0864 20.89 12C20.89 12.9136 20.7776 13.7238 20.6058 14.4284H22.5198C22.6893 13.7749 22.8004 12.975 22.8004 12C22.8004 11.025 22.6893 10.2251 22.5198 9.5716H20.6058ZM22.2586 8.7716H20.3727C20.2258 8.34093 20.0606 7.96173 19.8947 7.63469C19.7261 7.3021 19.5569 7.02369 19.406 6.8H20.3313C20.6124 6.8 20.8366 6.85673 20.9954 6.98068C21.3284 7.24061 21.8588 7.77669 22.2586 8.7716ZM22.2586 15.2284H20.3727C20.2258 15.6591 20.0606 16.0383 19.8947 16.3653C19.7261 16.6979 19.5569 16.9763 19.406 17.2H20.3313C20.6124 17.2 20.8366 17.1433 20.9954 17.0193C21.3284 16.7594 21.8588 16.2233 22.2586 15.2284ZM18.4075 17.2C18.4497 17.1501 18.5029 17.0845 18.5642 17.0032C18.7302 16.7832 18.9552 16.4492 19.1812 16.0035C19.2973 15.7746 19.4137 15.5162 19.5227 15.2284H18.8413C18.701 15.6527 18.5435 16.0273 18.3855 16.3512C18.2202 16.6901 18.0544 16.9733 17.9072 17.2H18.4075ZM16.9234 17.2C16.9634 17.1502 17.0132 17.0858 17.0704 17.0067C17.2307 16.7847 17.4481 16.4483 17.6665 16.0005C17.7779 15.7721 17.8897 15.5146 17.9943 15.2284L10.3362 15.2284C10.1831 15.7233 10.0051 16.1436 9.82516 16.4946C9.68229 16.7734 9.53868 17.0075 9.40625 17.2H16.9234ZM8.38721 17.2C8.42537 17.1594 8.4733 17.1057 8.52851 17.0384C8.68406 16.8487 8.89758 16.5505 9.11322 16.1297C9.24331 15.8759 9.37468 15.5765 9.49465 15.2284H8.79422C8.61331 15.7784 8.39729 16.2322 8.17792 16.6016C8.0395 16.8347 7.90036 17.0331 7.76891 17.2H8.38721ZM6.66899 17.2H4.94291C5.36937 16.7793 5.81505 16.152 6.13975 15.2284H7.94676C7.80438 15.6113 7.64607 15.9304 7.49007 16.1931C7.25097 16.5957 7.01472 16.8701 6.84347 17.0404C6.77291 17.1106 6.7133 17.1633 6.66899 17.2ZM8.38721 6.8C8.42537 6.84062 8.4733 6.89428 8.52851 6.96159C8.68406 7.15127 8.89758 7.44954 9.11322 7.87028C9.24331 8.1241 9.37468 8.42346 9.49465 8.7716H8.79422C8.61331 8.22165 8.39729 7.7678 8.17792 7.39839C8.0395 7.16531 7.90036 6.9669 7.76891 6.8H8.38721ZM8.28943 6.7028C8.2893 6.70269 8.28961 6.70295 8.29033 6.70359L8.28943 6.7028ZM3.59545 6.82288C3.53539 6.84608 3.45186 6.88227 3.3519 6.93587C3.12528 7.05738 2.81394 7.26845 2.49897 7.62176C1.87512 8.32153 1.20039 9.62135 1.20039 12C1.20039 14.3787 1.87512 15.6785 2.49897 16.3782C2.81394 16.7315 3.12528 16.9426 3.3519 17.0641C3.45186 17.1177 3.53539 17.1539 3.59545 17.1771C3.61897 17.1672 3.64623 17.1551 3.67674 17.1404C3.80446 17.079 3.98914 16.9726 4.19695 16.7983C4.60916 16.4524 5.12822 15.8256 5.4673 14.7119C5.67848 14.0182 5.82119 13.1311 5.82119 12C5.82119 10.8689 5.67848 9.98175 5.4673 9.2881C5.12822 8.17437 4.60916 7.54763 4.19695 7.20174C3.98914 7.02737 3.80446 6.92103 3.67674 6.85956C3.64623 6.84487 3.61898 6.83275 3.59545 6.82288ZM3.56311 8.5715C3.52565 8.5699 3.46303 8.58566 3.4102 8.67607C3.02182 9.34074 2.54439 10.4648 2.54439 11.9773C2.54439 13.4977 3.0269 14.6257 3.41636 15.289C3.46878 15.3783 3.53089 15.3942 3.56788 15.3928C3.60494 15.3914 3.66593 15.3707 3.71168 15.2777C4.0378 14.614 4.43239 13.5014 4.43239 12C4.43239 10.4973 4.03714 9.36818 3.70983 8.69045C3.6637 8.59493 3.60112 8.57313 3.56311 8.5715ZM3.59728 7.77223C3.947 7.78718 4.26364 7.99763 4.43022 8.34253C4.79908 9.1063 5.23239 10.3541 5.23239 12C5.23239 13.6451 4.79945 14.878 4.42966 15.6305C4.26174 15.9722 3.94576 16.1792 3.59795 16.1922C3.25006 16.2053 2.9194 16.0226 2.7265 15.6941C2.28306 14.9389 1.74439 13.6721 1.74439 11.9773C1.74439 10.2914 2.27739 9.02905 2.71947 8.27247C2.91339 7.9406 3.24702 7.75726 3.59728 7.77223Z" fill="#FF6D1A"/>
</svg>
