<svg width="24" height="24" viewBox="0 0 24 24" fill="none" xmlns="http://www.w3.org/2000/svg">
<path d="M4.80078 4.43181V20.5825M4.80078 4.43181C4.80078 4.43181 5.76503 1.59961 12.4008 1.59961C19.0365 1.59961 20.0008 4.43181 20.0008 4.43181M4.80078 4.43181C4.80078 4.43181 5.20401 7.22816 12.4008 7.22816C19.5976 7.22816 20.0008 4.43181 20.0008 4.43181M4.80078 20.5825C4.80078 20.5825 6.48383 23.1996 12.4008 23.1996C18.3177 23.1996 20.0008 20.5825 20.0008 20.5825M4.80078 20.5825C4.80078 20.5825 5.01153 19.7784 6.29723 19.041M20.0008 20.5825V4.43181M20.0008 20.5825C20.0008 20.5825 19.8233 19.9055 18.8008 19.2242M7.60078 18.4721C8.11379 18.3032 8.71899 18.1556 9.43251 18.0456M17.2008 18.4721C16.6878 18.3032 16.0826 18.1556 15.3691 18.0456M13.6008 17.8697C13.2232 17.8503 12.8236 17.8399 12.4008 17.8399C11.9779 17.8399 11.5784 17.8503 11.2008 17.8697" stroke="#FF6D1A" stroke-linecap="round" stroke-linejoin="round"/>
</svg>
