<svg width="24" height="24" viewBox="0 0 24 24" fill="none" xmlns="http://www.w3.org/2000/svg">
<path fill-rule="evenodd" clip-rule="evenodd" d="M8.2718 1.60078C7.60906 1.60078 7.0718 2.13804 7.0718 2.80078V7.40321H7.82556V3.48742C7.82556 2.82468 8.36282 2.28742 9.02556 2.28742H14.7196C15.3823 2.28742 15.9196 2.82468 15.9196 3.48742V7.40321H16.6518V2.80078C16.6518 2.13804 16.1145 1.60078 15.4518 1.60078H8.2718ZM17.4518 7.40321V2.80078C17.4518 1.69621 16.5563 0.800781 15.4518 0.800781H8.2718C7.16723 0.800781 6.2718 1.69621 6.2718 2.80078V7.40321H6.0952C5.19773 7.40321 4.41015 8.00105 4.16885 8.86548L0.8756 20.663C0.519701 21.938 1.47825 23.2008 2.80195 23.2008H20.954C22.2899 23.2008 23.2503 21.9162 22.8723 20.6349L19.3923 8.83737C19.1415 7.98696 18.3607 7.40321 17.4741 7.40321H17.4518ZM15.1196 7.40321V3.48742C15.1196 3.26651 14.9405 3.08742 14.7196 3.08742H9.02556C8.80465 3.08742 8.62556 3.26651 8.62556 3.48742V7.40321H15.1196ZM6.0952 8.20321C5.55672 8.20321 5.08417 8.56191 4.93939 9.08057L1.64614 20.8781C1.4326 21.6431 2.00773 22.4008 2.80195 22.4008H20.954C21.7556 22.4008 22.3318 21.63 22.105 20.8613L18.625 9.0637C18.4745 8.55346 18.006 8.20321 17.4741 8.20321H6.0952ZM11.3547 11.2973C11.5223 11.4412 11.5415 11.6938 11.3976 11.8614L8.75126 14.9431L11.7994 18.5423C11.9422 18.7109 11.9212 18.9633 11.7527 19.106C11.5841 19.2488 11.3317 19.2279 11.1889 19.0593L8.62556 16.0325V18.8008C8.62556 19.0217 8.44647 19.2008 8.22556 19.2008C8.00465 19.2008 7.82556 19.0217 7.82556 18.8008V11.6008C7.82556 11.3799 8.00465 11.2008 8.22556 11.2008C8.44647 11.2008 8.62556 11.3799 8.62556 11.6008V13.8615L10.7907 11.3402C10.9346 11.1726 11.1872 11.1534 11.3547 11.2973ZM15.0181 12.357C14.5579 11.8908 13.8054 11.8908 13.3452 12.357C13.128 12.577 13.0063 12.8736 13.0063 13.1827V17.3154C13.0063 17.6994 13.2053 18.056 13.5321 18.2576C13.9141 18.4932 14.4005 18.4748 14.7637 18.2111L15.0139 18.0294C15.0803 17.9812 15.1196 17.9041 15.1196 17.8221V16.0364C15.1196 15.8155 14.9405 15.6364 14.7196 15.6364H14.3974C14.1765 15.6364 13.9974 15.4573 13.9974 15.2364C13.9974 15.0155 14.1765 14.8364 14.3974 14.8364H14.7196C15.3823 14.8364 15.9196 15.3737 15.9196 16.0364V17.8221C15.9196 18.1602 15.7577 18.478 15.484 18.6767L15.2338 18.8584C14.6082 19.3127 13.7702 19.3444 13.1121 18.9385C12.5491 18.5912 12.2063 17.977 12.2063 17.3154V13.1827C12.2063 12.6633 12.4109 12.1647 12.7758 11.795C13.5492 11.0115 14.814 11.0115 15.5875 11.795L15.8043 12.0147C15.9595 12.1719 15.9578 12.4252 15.8006 12.5804C15.6434 12.7356 15.3901 12.7339 15.2349 12.5767L15.0181 12.357Z" fill="#FF6D1A"/>
</svg>
