<svg width="15" height="15" viewBox="0 0 15 15" fill="none" xmlns="http://www.w3.org/2000/svg">
<path d="M7.5 14.5L11.7857 10.3577C12.6126 9.54208 13.1719 8.50862 13.3935 7.38696C13.6151 6.26531 13.4892 5.10537 13.0315 4.05261C12.5738 2.99985 11.8047 2.10113 10.8207 1.46913C9.83665 0.837135 8.68147 0.5 7.5 0.5C6.31853 0.5 5.16335 0.837135 4.17932 1.46913C3.19529 2.10113 2.42621 2.99985 1.96851 4.05261C1.51082 5.10537 1.38489 6.26531 1.6065 7.38696C1.82812 8.50862 2.38743 9.54208 3.21429 10.3577L7.5 14.5Z" stroke="#3E4A61" stroke-linecap="round" stroke-linejoin="round"/>
<path d="M5.16663 5.50008C5.16663 6.78875 6.21129 7.83341 7.49996 7.83341C8.78862 7.83341 9.83329 6.78875 9.83329 5.50008C9.83329 4.21142 8.78862 3.16675 7.49996 3.16675C6.21129 3.16675 5.16663 4.21142 5.16663 5.50008Z" stroke="#3E4A61"/>
</svg>
