<svg width="77" height="26" viewBox="0 0 77 26" fill="none" xmlns="http://www.w3.org/2000/svg">
<path d="M0 2.45946C0 1.10114 1.14954 0 2.56757 0H24.5753C25.9933 0 27.1429 1.10114 27.1429 2.45946V23.5405C27.1429 24.8989 25.9933 26 24.5753 26H2.56757C1.14954 26 0 24.8989 0 23.5405V2.45946Z" fill="url(#paint0_linear_512_4542)"/>
<path d="M10.745 8.3361V8.10672V7.49505V7.26567H10.3459V7.34213V8.25964V8.3361H10.745Z" fill="#FF6D1A"/>
<path d="M7.07331 15.7526V12.6178V12.4649H9.46791H9.70737H12.102H12.3414H12.5809V11.9297H12.3414H12.0221H11.2239H10.9047H10.2661H9.94683H9.22845H8.90917H7.07331V11.7768H8.90917H9.22845H9.94683H10.2661H10.9047H11.2239H12.0221V11.9297H12.3414V11.7003H12.8203V12.2355H13.2194V11.7003H20.5629V12.2355H20.8822V11.7003H20.962V10.9357V10.2476V9.40652H20.8822L20.084 8.3361H17.849L18.6472 9.40652H13.2194V8.87131H12.8203V9.40652H12.2616V8.3361H17.849H20.084V5.8894H12.0221V6.73045V7.64796V9.40652H5.23745V9.94174H5.15763V10.2476V10.7828V11.0886H5.23745V11.7768H5.63655V11.9297H4.67871V12.5413H5.63655V15.7526H7.07331Z" fill="white"/>
<path d="M12.3414 15.2174V12.6178H12.102H9.70737H9.62755V17.8935V18.5816H12.3414V16.7466V16.4408V15.2174Z" fill="white"/>
<path d="M9.30827 12.6178H7.07331V15.7526V18.2758H9.30827V17.8935V12.7707V12.6178Z" fill="white"/>
<path d="M9.30827 12.7707V17.8935H9.62755V12.6178H9.70737V12.4649H9.46791V12.7707H9.30827Z" fill="white"/>
<path d="M12.3414 15.2174V16.4408L12.8203 15.982H13.0598C13.0864 15.982 13.1396 15.9514 13.1396 15.8291C13.1396 15.7068 13.0864 15.6762 13.0598 15.6762H12.8203L12.3414 15.2174Z" fill="white"/>
<path d="M14.4167 19.4227H18.8867C18.9931 19.3972 19.2059 19.3003 19.2059 19.1168V16.7466C19.2059 16.5631 18.9931 16.4662 18.8867 16.4408H14.4167C14.2252 16.4408 14.1241 16.6447 14.0975 16.7466V19.1168C14.1241 19.2188 14.2252 19.4227 14.4167 19.4227Z" fill="white"/>
<path d="M19.2059 16.7466V19.1168H19.6849V16.7466H19.2059Z" fill="white"/>
<path d="M13.6185 16.7466V17.817V18.2758V19.1168H14.0975V16.7466H13.6185Z" fill="white"/>
<path d="M13.6185 17.817H13.2194V18.2758H13.6185V17.817Z" fill="white"/>
<path d="M12.3414 16.7466V18.5816H9.62755H9.30827V19.0404H8.98899V19.4227H13.2194V18.2758V17.817V16.7466H12.3414Z" fill="white"/>
<path d="M8.98899 20.1108H19.3656V19.4227H18.8867H14.4167H13.2194H8.98899V20.1108Z" fill="white"/>
<path d="M21.2014 12.2355H20.8822H20.5629H20.2436V19.805H21.2014V12.2355Z" fill="white"/>
<path d="M21.5207 19.805H21.2014H20.2436H19.9243V20.1108H21.5207V19.805Z" fill="white"/>
<path d="M21.2813 8.71839V9.40652V11.7003V12.3884H22.2391V8.71839H21.2813Z" fill="white"/>
<path d="M21.1216 9.40652V10.2476V10.9357V11.7003H21.2813V9.40652H21.1216Z" fill="white"/>
<path d="M21.1216 10.2476H20.962V10.9357H21.1216V10.2476Z" fill="white"/>
<path d="M11.7029 7.41859H11.8625V6.95983H11.7029V6.73045H11.1441V6.95983C11.0643 6.95983 10.9845 6.95983 10.9845 7.18921C10.9845 7.41859 11.0643 7.41859 11.1441 7.41859V7.5715H10.9047V7.49505H10.745V8.10672H10.9047V8.03026H11.1441V8.18318H11.3836C11.5752 8.18318 11.6763 7.97929 11.7029 7.87734V7.41859Z" fill="white"/>
<path d="M11.8625 7.64796H12.0221V6.73045H11.8625V6.95983V7.41859V7.64796Z" fill="white"/>
<path d="M9.06881 8.25964H10.3459V7.34213H9.06881C8.96238 7.34213 8.74953 7.43388 8.74953 7.80088C8.74953 8.16789 8.96238 8.25964 9.06881 8.25964Z" fill="white"/>
<path d="M4.99799 10.7828H5.15763V10.2476H4.99799V10.7828Z" fill="white"/>
<path d="M9.22845 11.9297V11.7768H8.90917V11.9297H9.22845Z" fill="white"/>
<path d="M10.2661 11.9297V11.7768H9.94683V11.9297H10.2661Z" fill="white"/>
<path d="M11.2239 11.9297V11.7768H10.9047V11.9297H11.2239Z" fill="white"/>
<path d="M12.3414 12.4649H12.102V12.6178H12.3414V12.4649Z" fill="white"/>
<rect x="14.0977" y="17.0525" width="5.10848" height="0.229376" fill="#FF6D1A"/>
<rect x="14.0977" y="17.4348" width="5.10848" height="0.229378" fill="#FF6D1A"/>
<rect x="14.0977" y="17.8171" width="5.10848" height="0.22938" fill="#FF6D1A"/>
<rect x="14.0977" y="18.1995" width="5.10848" height="0.229379" fill="#FF6D1A"/>
<rect x="14.0977" y="18.5818" width="5.10848" height="0.229382" fill="#FF6D1A"/>
<path d="M35.6961 10.6232V2.55908H39.3807V10.6232H42.0768V0.208297H33V10.6232H35.6961Z" fill="#262628"/>
<path d="M46.7835 10.6232V6.7399H48.7607C49.929 6.7399 50.8576 6.44233 51.5466 5.83232C52.2356 5.22231 52.5801 4.43375 52.5801 3.46666C52.5801 2.49957 52.2356 1.72589 51.5466 1.11588C50.8576 0.505865 49.929 0.208297 48.7607 0.208297H44.0874V10.6232H46.7835ZM46.7835 2.46981H48.5659C49.3598 2.46981 49.8541 2.84177 49.8541 3.49642C49.8541 4.15106 49.3448 4.5379 48.5659 4.5379H46.7835V2.46981Z" fill="#262628"/>
<path d="M57.1519 7.52845C56.6277 6.97795 56.373 6.26379 56.373 5.41573C56.373 4.56766 56.6277 3.8535 57.1519 3.303C57.6761 2.7525 58.3352 2.46981 59.129 2.46981C59.9229 2.46981 60.567 2.7525 61.0912 3.303C61.6154 3.8535 61.885 4.56766 61.885 5.41573C61.885 6.26379 61.6154 6.97795 61.0912 7.52845C60.567 8.07895 59.9229 8.36164 59.129 8.36164C58.3352 8.36164 57.6761 8.07895 57.1519 7.52845ZM63.0833 9.25434C64.1318 8.19798 64.656 6.91844 64.656 5.41573C64.656 3.91301 64.1318 2.63347 63.0833 1.57711C62.0348 0.520743 60.7167 0 59.129 0C57.5413 0 56.2232 0.520743 55.1748 1.57711C54.1263 2.63347 53.602 3.91301 53.602 5.41573C53.602 6.91844 54.1263 8.19798 55.1748 9.25434C56.2232 10.3107 57.5413 10.8315 59.129 10.8315C60.7167 10.8315 62.0348 10.3107 63.0833 9.25434Z" fill="#262628"/>
<path d="M69.0316 10.6232V4.27009L70.9638 7.06722H72.4466L74.3189 4.27009V10.6232H77V0.208297H74.3339L71.6677 4.21058L69.0166 0.208297H66.3355V10.6232H69.0316Z" fill="#262628"/>
<path d="M35.6961 25V16.9359H40.7438V14.5851H33V25H35.6961Z" fill="#262628"/>
<path d="M44.9698 25V21.1167H46.9469C48.1152 21.1167 49.0439 20.8192 49.7329 20.2092C50.4219 19.5992 50.7664 18.8106 50.7664 17.8435C50.7664 16.8764 50.4219 16.1027 49.7329 15.4927C49.0439 14.8827 48.1152 14.5851 46.9469 14.5851H42.2737V25H44.9698ZM44.9698 16.8467H46.7522C47.546 16.8467 48.0403 17.2186 48.0403 17.8733C48.0403 18.5279 47.531 18.9147 46.7522 18.9147H44.9698V16.8467Z" fill="#262628"/>
<path d="M52.9105 25L53.7942 22.798H57.6885L58.5723 25H61.4631L57.0595 14.5256H54.4682L50.0646 25H52.9105ZM55.7414 17.8733L56.8348 20.6555H54.648L55.7414 17.8733Z" fill="#262628"/>
<path d="M65.3162 25V20.6704H69.2705V25H71.9666V14.5851H69.2705V18.2899H65.3162V14.5851H62.6201V25H65.3162Z" fill="#262628"/>
<defs>
<linearGradient id="paint0_linear_512_4542" x1="27.1429" y1="-5.29758e-06" x2="-2.58765" y2="3.4048" gradientUnits="userSpaceOnUse">
<stop stop-color="#FF5300"/>
<stop offset="1" stop-color="#FF7800"/>
</linearGradient>
</defs>
</svg>
