<svg width="24" height="24" viewBox="0 0 24 24" fill="none" xmlns="http://www.w3.org/2000/svg">
<mask id="path-1-inside-1_223_638" fill="white">
<path d="M20.3847 21.6986L21.1948 20.7664C21.7105 20.25 22 19.5506 22 18.8215C22 18.0923 21.7105 17.3929 21.1948 16.8765C21.1672 16.849 19.0252 15.204 19.0252 15.204C18.5111 14.7155 17.8283 14.4435 17.1185 14.4445C16.4087 14.4455 15.7267 14.7194 15.2139 15.2094L13.5171 16.6366C12.132 16.0644 10.8737 15.2246 9.81466 14.1656C8.75559 13.1066 7.91653 11.8491 7.34567 10.4655L8.77011 8.77698C9.26129 8.26524 9.53601 7.58424 9.53718 6.87553C9.53834 6.16682 9.26584 5.48492 8.77634 4.97158C8.77634 4.97158 7.12666 2.83605 7.09906 2.8085C6.59112 2.29816 5.90242 2.0078 5.18179 2.00016C4.46115 1.99251 3.76643 2.26818 3.24772 2.76762L2.22391 3.65631C-3.82464 10.661 9.20011 23.5622 16.4487 23.3302C17.1807 23.3345 17.9061 23.1923 18.5821 22.912C19.2581 22.6318 19.871 22.2192 20.3847 21.6986Z"/>
</mask>
<path d="M20.3847 21.6986L21.1948 20.7664C21.7105 20.25 22 19.5506 22 18.8215C22 18.0923 21.7105 17.3929 21.1948 16.8765C21.1672 16.849 19.0252 15.204 19.0252 15.204C18.5111 14.7155 17.8283 14.4435 17.1185 14.4445C16.4087 14.4455 15.7267 14.7194 15.2139 15.2094L13.5171 16.6366C12.132 16.0644 10.8737 15.2246 9.81466 14.1656C8.75559 13.1066 7.91653 11.8491 7.34567 10.4655L8.77011 8.77698C9.26129 8.26524 9.53601 7.58424 9.53718 6.87553C9.53834 6.16682 9.26584 5.48492 8.77634 4.97158C8.77634 4.97158 7.12666 2.83605 7.09906 2.8085C6.59112 2.29816 5.90242 2.0078 5.18179 2.00016C4.46115 1.99251 3.76643 2.26818 3.24772 2.76762L2.22391 3.65631C-3.82464 10.661 9.20011 23.5622 16.4487 23.3302C17.1807 23.3345 17.9061 23.1923 18.5821 22.912C19.2581 22.6318 19.871 22.2192 20.3847 21.6986Z" stroke="#FF6D1A" stroke-width="3" mask="url(#path-1-inside-1_223_638)"/>
<path d="M14 5.0001C14.6667 4.88899 16.3333 5.0001 17.6667 6.33343C19 7.66677 19.1111 9.55564 19 10.3334" stroke="#FF6D1A" stroke-width="1.5" stroke-linecap="round"/>
<path d="M13.3333 1.00008C14 0.888972 17.8308 0.863461 20.3333 3.366C22.8358 5.86853 23.1111 9.55566 23 10.3334" stroke="#FF6D1A" stroke-width="1.5" stroke-linecap="round"/>
</svg>
