<svg width="20" height="20" viewBox="0 0 20 20" fill="none" xmlns="http://www.w3.org/2000/svg">
<path d="M16.9872 18.0823L17.6623 17.3054C18.092 16.8751 18.3333 16.2922 18.3333 15.6846C18.3333 15.077 18.092 14.4942 17.6623 14.0639C17.6393 14.0409 15.8543 12.6701 15.8543 12.6701C15.4259 12.263 14.8569 12.0364 14.2654 12.0372C13.6739 12.038 13.1055 12.2663 12.6782 12.6745L11.2642 13.8639C10.1099 13.387 9.06141 12.6873 8.17885 11.8047C7.29629 10.9222 6.59707 9.87436 6.12136 8.72133L7.3084 7.31423C7.71771 6.88778 7.94665 6.32028 7.94761 5.72969C7.94858 5.13909 7.72151 4.57085 7.31359 4.14307C7.31359 4.14307 5.93885 2.36346 5.91585 2.3405C5.49257 1.91522 4.91866 1.67325 4.31812 1.66688C3.71759 1.6605 3.13866 1.89023 2.70641 2.30643L1.85322 3.04701C-3.18723 8.88426 7.66673 19.6352 13.7073 19.442C14.3172 19.4455 14.9217 19.327 15.4851 19.0934C16.0484 18.8599 16.5592 18.5161 16.9872 18.0823Z" fill="#FF6D1A"/>
<path d="M11.6666 4.16679C12.2222 4.0742 13.6111 4.16679 14.7222 5.2779C15.8333 6.38901 15.9259 7.96308 15.8333 8.61122" stroke="#FF6D1A" stroke-linecap="round"/>
<path d="M11.1111 0.833443C11.6666 0.740851 14.859 0.719592 16.9444 2.80504C19.0298 4.89048 19.2592 7.96309 19.1666 8.61123" stroke="#FF6D1A" stroke-linecap="round"/>
</svg>
