<svg width="32" height="32" viewBox="0 0 32 32" fill="none" xmlns="http://www.w3.org/2000/svg">
<path d="M16.3283 7.6697C15.2995 6.20906 13.9278 4.97705 12.3401 4.15147C11.6035 3.75773 10.816 3.46561 10.0031 3.24969C9.58397 3.14808 9.16483 3.05917 8.73299 3.00836C8.33925 2.95756 7.90741 2.88135 7.51367 3.02106" stroke="#FF6D1A" stroke-miterlimit="10"/>
<path d="M22.7171 4.72266C25.613 5.95467 27.4165 8.91404 27.569 11.7972C27.696 14.1088 26.8196 17.9573 23.911 18.0716C23.2506 18.097 22.6409 17.9319 22.0439 17.6906C20.1134 16.9412 19.1354 14.6804 18.5511 12.8641C18.3098 12.1147 18.0812 11.3527 17.8145 10.6033" stroke="#FF6D1A" stroke-miterlimit="10"/>
<path d="M4.16016 3.5925L7.28464 2.06836L7.84349 3.28767L4.6047 4.79911L4.16016 3.5925Z" stroke="#FF6D1A" stroke-miterlimit="10"/>
<path d="M19.6172 3.23585L22.3225 5.43315L23.1354 4.37896L20.3284 2.15625L19.6172 3.23585Z" stroke="#FF6D1A" stroke-miterlimit="10"/>
<path d="M22.1708 17.793C22.0438 16.9294 22.7677 16.1673 23.6314 16.2816C24.3427 16.3705 25.2318 16.1546 26.0828 15.075C27.2386 13.6016 27.8482 14.7956 27.8228 15.6973C27.8228 16.0149 27.8228 16.2816 27.7593 16.5102C27.5307 17.3231 26.3495 19.5204 23.1869 18.9361C22.6534 18.8345 22.247 18.4027 22.1581 17.8692C22.1835 17.8438 22.1835 17.8184 22.1708 17.793Z" fill="#FF6D1A"/>
<path d="M6.89034 2.05602C6.78873 1.8401 6.72522 1.71309 6.72522 1.70039C6.69982 1.66229 6.4966 1.28125 6.02666 1.28125C5.81074 1.28125 5.55671 1.35746 5.27729 1.50987C4.47711 1.94171 4.29929 2.36085 4.26119 2.57677C4.24849 2.66568 4.27389 2.75459 4.29929 2.81809C4.3374 2.9197 4.46441 3.16103 4.52792 3.33884" stroke="#FF6D1A" stroke-miterlimit="10" stroke-linejoin="round"/>
<path d="M22.9444 4.0764C23.1095 3.88588 23.2873 3.63186 23.4524 3.47945C23.7065 3.25082 23.7319 2.83168 23.5159 2.57766C23.3889 2.43795 23.2238 2.27283 22.792 1.968C22.3474 1.65047 21.9537 1.47266 21.6362 1.47266C21.2551 1.47266 21.09 1.71398 21.0773 1.75208L21.0519 1.79019L20.709 2.22203L20.7217 2.23473" stroke="#FF6D1A" stroke-miterlimit="10" stroke-linejoin="round"/>
<path d="M19.7077 3.45312L14.4368 10.0323C14.4114 10.0577 14.3987 10.0831 14.3733 10.1085C14.17 10.3372 13.4334 11.0611 12.4808 11.0611C11.5282 11.0611 10.728 10.3626 10.1057 8.96544C9.24197 7.02216 8.27668 4.97727 7.60352 3.55473" stroke="#FF6D1A" stroke-miterlimit="10"/>
<path d="M5.01172 4.73633C6.58666 9.05473 9.78736 18.949 9.34282 24.0929C9.34282 24.1945 9.24121 26.1632 9.24121 26.214L9.0888 29.7069C9.0761 29.999 9.24121 30.2657 9.50794 30.3673C9.99058 30.5705 10.7272 30.7992 11.502 30.7992C12.099 30.7992 12.6324 30.6594 13.0897 30.38C13.2929 30.253 13.4199 30.0244 13.4072 29.7831C13.4072 29.6307 13.3945 29.4401 13.3818 29.2242C13.2675 26.8364 12.9881 21.2479 15.2489 14.8592C15.4394 14.313 15.8712 13.4747 16.1888 12.9921C17.9034 10.4265 20.1134 7.25116 21.9297 5.10466" stroke="#FF6D1A" stroke-miterlimit="10"/>
</svg>
