<svg width="22" height="22" viewBox="0 0 22 22" fill="none" xmlns="http://www.w3.org/2000/svg">
<path d="M11 6.53133C11.4583 6.47404 12.5812 6.60008 13.4062 7.56258C14.2312 8.52508 14.2083 9.56777 14.0937 9.96879M10.8281 3.7813C11.7448 3.66671 13.9219 3.9188 15.2969 5.8438C16.6719 7.7688 16.7865 9.51047 16.6719 10.1407" stroke="#FF6D1A" stroke-linecap="round" stroke-linejoin="round"/>
<path d="M2 7C2 3.68629 4.68629 1 8 1H14C17.3137 1 20 3.68629 20 7V13C20 16.3137 17.3137 19 14 19H10L8.06464 20.3824C7.04703 21.1093 6.19453 20.9679 6.24581 19.7185C6.26715 19.1984 6.24462 18.745 6 18.6586C3.66962 17.8349 2 15.6124 2 13V7Z" stroke="#FF6D1A"/>
<path d="M9.22776 8.17918L7.45427 6.26927C7.32447 6.12949 7.10568 6.12212 6.96678 6.25286L5.32899 7.79431C4.76411 8.32595 4.75058 9.21934 5.29909 9.76785L10.8245 15.2932C11.3853 15.8541 12.303 15.8254 12.8278 15.2307L14.2239 13.6484C14.344 13.5123 14.3375 13.3063 14.2092 13.1779L12.4462 11.415C12.312 11.2807 12.0943 11.2807 11.9601 11.415L11.5869 11.7882C11.4526 11.9225 11.235 11.9225 11.1007 11.7882L8.83685 9.52436C8.70261 9.39012 8.70261 9.17247 8.83685 9.03823L9.21893 8.65615C9.34967 8.52541 9.35357 8.31467 9.22776 8.17918Z" stroke="#FF6D1A" stroke-linecap="round" stroke-linejoin="round"/>
</svg>
