<svg width="26" height="26" viewBox="0 0 26 26" fill="none" xmlns="http://www.w3.org/2000/svg">
<path d="M3.27026 18.6394L3.33944 18.4272L3.22769 18.234C2.26812 16.5752 1.71877 14.6494 1.71877 12.5938C1.71877 6.36329 6.76956 1.3125 13 1.3125C19.2305 1.3125 24.2813 6.36329 24.2813 12.5938C24.2813 18.8242 19.2305 23.875 13 23.875C11.0522 23.875 9.22102 23.3818 7.62315 22.5138L7.43319 22.4106L7.22788 22.4783L1.391 24.4032L3.27026 18.6394ZM1.21509 24.4613C1.21516 24.4612 1.21524 24.4612 1.21532 24.4612L1.21509 24.4613Z" stroke="#FF6D1A"/>
<path d="M11.494 8.8533L9.42793 6.7872C9.26928 6.62855 9.01206 6.62855 8.85341 6.7872L7.16839 8.47223C7.12948 8.51113 7.09828 8.55681 7.08167 8.60926C6.83441 9.39009 6.83694 11.9071 10.1563 15.0312C13.4912 18.1699 15.7526 18.9089 16.7573 18.7119C16.8251 18.6986 16.885 18.6618 16.9339 18.613L18.8065 16.7403C18.9652 16.5817 18.9652 16.3245 18.8065 16.1658L16.7404 14.0997C16.5818 13.941 16.3246 13.9411 16.1659 14.0997L15.3781 14.8876C15.2876 14.978 15.1599 15.0219 15.0356 14.9922C14.461 14.855 13.3348 14.4101 12.1875 13.4062C11.006 12.3723 10.6299 11.1483 10.5711 10.5271C10.561 10.4199 10.6053 10.3165 10.6815 10.2403L11.494 9.42783C11.6527 9.26918 11.6527 9.01195 11.494 8.8533Z" stroke="#FF6D1A" stroke-linecap="round" stroke-linejoin="round"/>
</svg>
